<?xml version="1.0" encoding="UTF-8" standalone="no"?>
<!DOCTYPE svg PUBLIC "-//W3C//DTD SVG 1.1//EN"
 "http://www.w3.org/Graphics/SVG/1.1/DTD/svg11.dtd">
<!-- Generated by graphviz version 14.1.2 (20260124.0452)
 -->
<!-- Title: ModuleDependencies Pages: 1 -->
<svg width="2086pt" height="1071pt"
 viewBox="0.00 0.00 2086.00 1071.00" xmlns="http://www.w3.org/2000/svg" xmlns:xlink="http://www.w3.org/1999/xlink">
<g id="graph0" class="graph" transform="scale(1 1) rotate(0) translate(36 1034.5)">
<title>ModuleDependencies</title>
<polygon fill="white" stroke="none" points="-36,36 -36,-1034.5 2050.15,-1034.5 2050.15,36 -36,36"/>
<g id="clust1" class="cluster">
<title>cluster_utilities</title>
<polygon fill="#e8e8f8" stroke="#e8e8f8" points="1124.88,-159 1124.88,-235.5 1692.88,-235.5 1692.88,-159 1124.88,-159"/>
<text xml:space="preserve" text-anchor="middle" x="1408.88" y="-218.2" font-family="Times,serif" font-size="14.00">Utilities</text>
</g>
<g id="clust2" class="cluster">
<title>cluster_clients</title>
<polygon fill="#e8f4f8" stroke="#e8f4f8" points="80.88,-8 80.88,-235.5 526.88,-235.5 526.88,-8 80.88,-8"/>
<text xml:space="preserve" text-anchor="middle" x="303.88" y="-218.2" font-family="Times,serif" font-size="14.00">Clients</text>
</g>
<g id="clust3" class="cluster">
<title>cluster_screens</title>
<polygon fill="#f8f4e8" stroke="#f8f4e8" points="869.88,-310 869.88,-537.5 1345.88,-537.5 1345.88,-310 869.88,-310"/>
<text xml:space="preserve" text-anchor="middle" x="1107.88" y="-520.2" font-family="Times,serif" font-size="14.00">Screens</text>
</g>
<g id="clust4" class="cluster">
<title>cluster_coordinators</title>
<polygon fill="#f8e8f4" stroke="#f8e8f4" points="1131.88,-612 1131.88,-839.5 1257.88,-839.5 1257.88,-612 1131.88,-612"/>
<text xml:space="preserve" text-anchor="middle" x="1194.88" y="-822.2" font-family="Times,serif" font-size="14.00">Coordinators</text>
</g>
<g id="clust5" class="cluster">
<title>cluster_macros</title>
<polygon fill="#f4f8e8" stroke="#f4f8e8" points="1206.88,-8 1206.88,-84.5 1606.88,-84.5 1606.88,-8 1206.88,-8"/>
<text xml:space="preserve" text-anchor="middle" x="1406.88" y="-67.2" font-family="Times,serif" font-size="14.00">Macros</text>
</g>
<g id="clust6" class="cluster">
<title>cluster_root</title>
<polygon fill="#f0f0f0" stroke="#f0f0f0" points="1152.88,-914 1152.88,-990.5 1236.88,-990.5 1236.88,-914 1152.88,-914"/>
<text xml:space="preserve" text-anchor="middle" x="1194.88" y="-973.2" font-family="Times,serif" font-size="14.00">Root</text>
</g>
<!-- ModularDependencyContainer -->
<g id="node1" class="node">
<title>ModularDependencyContainer</title>
<polygon fill="#ccccf0" stroke="black" points="1684.75,-203 1485,-203 1485,-167 1684.75,-167 1684.75,-203"/>
<text xml:space="preserve" text-anchor="middle" x="1584.88" y="-179.2" font-family="Helvetica,sans-Serif" font-size="14.00">ModularDependencyContainer</text>
</g>
<!-- DependencyRequirementsMacro -->
<g id="node15" class="node">
<title>DependencyRequirementsMacro</title>
<polygon fill="#e7f0cc" stroke="black" points="1599.25,-52 1384.5,-52 1384.5,-16 1599.25,-16 1599.25,-52"/>
<text xml:space="preserve" text-anchor="middle" x="1491.88" y="-28.2" font-family="Helvetica,sans-Serif" font-size="14.00">DependencyRequirementsMacro</text>
</g>
<!-- ModularDependencyContainer&#45;&gt;DependencyRequirementsMacro -->
<g id="edge44" class="edge">
<title>ModularDependencyContainer&#45;&gt;DependencyRequirementsMacro</title>
<path fill="none" stroke="black" d="M1574.03,-166.62C1557.93,-140.82 1527.58,-92.2 1508.62,-61.82"/>
<polygon fill="black" stroke="black" points="1511.72,-60.19 1503.46,-53.56 1505.79,-63.89 1511.72,-60.19"/>
</g>
<!-- ModularNavigation -->
<g id="node2" class="node">
<title>ModularNavigation</title>
<polygon fill="#ccccf0" stroke="black" points="1426.5,-203 1297.25,-203 1297.25,-167 1426.5,-167 1426.5,-203"/>
<text xml:space="preserve" text-anchor="middle" x="1361.88" y="-179.2" font-family="Helvetica,sans-Serif" font-size="14.00">ModularNavigation</text>
</g>
<!-- UIComponents -->
<g id="node3" class="node">
<title>UIComponents</title>
<polygon fill="#ccccf0" stroke="black" points="1239.25,-203 1132.5,-203 1132.5,-167 1239.25,-167 1239.25,-203"/>
<text xml:space="preserve" text-anchor="middle" x="1185.88" y="-179.2" font-family="Helvetica,sans-Serif" font-size="14.00">UIComponents</text>
</g>
<!-- ImageLoader -->
<g id="node4" class="node">
<title>ImageLoader</title>
<polygon fill="#cce7f0" stroke="black" points="519,-203 422.75,-203 422.75,-167 519,-167 519,-203"/>
<text xml:space="preserve" text-anchor="middle" x="470.88" y="-179.2" font-family="Helvetica,sans-Serif" font-size="14.00">ImageLoader</text>
</g>
<!-- UIComponents&#45;&gt;ImageLoader -->
<g id="edge46" class="edge">
<title>UIComponents&#45;&gt;ImageLoader</title>
<path fill="none" stroke="black" d="M1132.18,-185C931.71,-185 731.24,-185 530.78,-185"/>
<polygon fill="black" stroke="black" points="530.92,-181.5 520.92,-185 530.92,-188.5 530.92,-181.5"/>
</g>
<!-- CopyableMacro -->
<g id="node14" class="node">
<title>CopyableMacro</title>
<polygon fill="#e7f0cc" stroke="black" points="1326.5,-52 1215.25,-52 1215.25,-16 1326.5,-16 1326.5,-52"/>
<text xml:space="preserve" text-anchor="middle" x="1270.88" y="-28.2" font-family="Helvetica,sans-Serif" font-size="14.00">CopyableMacro</text>
</g>
<!-- UIComponents&#45;&gt;CopyableMacro -->
<g id="edge45" class="edge">
<title>UIComponents&#45;&gt;CopyableMacro</title>
<path fill="none" stroke="black" d="M1195.79,-166.62C1210.45,-140.93 1238.01,-92.62 1255.35,-62.21"/>
<polygon fill="black" stroke="black" points="1258.36,-64.01 1260.27,-53.59 1252.28,-60.54 1258.36,-64.01"/>
</g>
<!-- MovieDomain -->
<g id="node5" class="node">
<title>MovieDomain</title>
<polygon fill="#cce7f0" stroke="black" points="364.88,-203 264.88,-203 264.88,-167 364.88,-167 364.88,-203"/>
<text xml:space="preserve" text-anchor="middle" x="314.88" y="-179.2" font-family="Helvetica,sans-Serif" font-size="14.00">MovieDomain</text>
</g>
<!-- TMDBClient -->
<g id="node6" class="node">
<title>TMDBClient</title>
<polygon fill="#cce7f0" stroke="black" points="438.63,-52 349.13,-52 349.13,-16 438.63,-16 438.63,-52"/>
<text xml:space="preserve" text-anchor="middle" x="393.88" y="-28.2" font-family="Helvetica,sans-Serif" font-size="14.00">TMDBClient</text>
</g>
<!-- MovieDomain&#45;&gt;TMDBClient -->
<g id="edge43" class="edge">
<title>MovieDomain&#45;&gt;TMDBClient</title>
<path fill="none" stroke="black" d="M324.09,-166.62C337.71,-140.93 363.33,-92.62 379.45,-62.21"/>
<polygon fill="black" stroke="black" points="382.42,-64.08 384.01,-53.61 376.23,-60.81 382.42,-64.08"/>
</g>
<!-- WatchlistDomain -->
<g id="node7" class="node">
<title>WatchlistDomain</title>
<polygon fill="#cce7f0" stroke="black" points="206.88,-203 88.88,-203 88.88,-167 206.88,-167 206.88,-203"/>
<text xml:space="preserve" text-anchor="middle" x="147.88" y="-179.2" font-family="Helvetica,sans-Serif" font-size="14.00">WatchlistDomain</text>
</g>
<!-- BoxOfficeScreen -->
<g id="node8" class="node">
<title>BoxOfficeScreen</title>
<polygon fill="#f0e7cc" stroke="black" points="1167.88,-505 1049.88,-505 1049.88,-469 1167.88,-469 1167.88,-505"/>
<text xml:space="preserve" text-anchor="middle" x="1108.88" y="-481.2" font-family="Helvetica,sans-Serif" font-size="14.00">BoxOfficeScreen</text>
</g>
<!-- BoxOfficeScreen&#45;&gt;ModularDependencyContainer -->
<g id="edge17" class="edge">
<title>BoxOfficeScreen&#45;&gt;ModularDependencyContainer</title>
<path fill="none" stroke="black" d="M1168.28,-473.86C1270.17,-451.98 1472.28,-403.56 1523.88,-354 1563.05,-316.37 1577.18,-251.65 1582.19,-214.48"/>
<polygon fill="black" stroke="black" points="1585.62,-215.3 1583.34,-204.95 1578.67,-214.46 1585.62,-215.3"/>
</g>
<!-- BoxOfficeScreen&#45;&gt;ModularNavigation -->
<g id="edge18" class="edge">
<title>BoxOfficeScreen&#45;&gt;ModularNavigation</title>
<path fill="none" stroke="black" d="M1361.88,-335C1372.43,-294.09 1369.52,-244.74 1366.03,-214.36"/>
<polygon fill="black" stroke="black" points="1369.55,-214.32 1364.83,-204.83 1362.61,-215.19 1369.55,-214.32"/>
</g>
<!-- BoxOfficeScreen&#45;&gt;UIComponents -->
<g id="edge22" class="edge">
<title>BoxOfficeScreen&#45;&gt;UIComponents</title>
<path fill="none" stroke="black" d="M1361.88,-335C1366.5,-317.07 1272.54,-247.25 1220.06,-209.9"/>
<polygon fill="black" stroke="black" points="1222.2,-207.12 1212.01,-204.19 1218.15,-212.83 1222.2,-207.12"/>
<path fill="none" stroke="black" d="M1168.32,-475.19C1236.07,-458.97 1340.26,-420.79 1361.88,-337"/>
</g>
<!-- BoxOfficeScreen&#45;&gt;ImageLoader -->
<g id="edge20" class="edge">
<title>BoxOfficeScreen&#45;&gt;ImageLoader</title>
<path fill="none" stroke="black" d="M973.88,-335C821.81,-262.48 626.88,-216.97 530.42,-197.3"/>
<polygon fill="black" stroke="black" points="531.14,-193.87 520.64,-195.32 529.75,-200.73 531.14,-193.87"/>
<path fill="none" stroke="black" d="M1099.42,-468.64C1080.54,-435.96 1034.69,-366 973.88,-337"/>
</g>
<!-- BoxOfficeScreen&#45;&gt;MovieDomain -->
<g id="edge19" class="edge">
<title>BoxOfficeScreen&#45;&gt;MovieDomain</title>
<path fill="none" stroke="black" d="M1049.66,-470.11C924.92,-435.61 627.38,-347.82 393.88,-235.5 378.5,-228.1 362.39,-218.41 348.76,-209.56"/>
<polygon fill="black" stroke="black" points="350.86,-206.74 340.58,-204.14 346.99,-212.58 350.86,-206.74"/>
</g>
<!-- DetailScreen -->
<g id="node9" class="node">
<title>DetailScreen</title>
<polygon fill="#f0e7cc" stroke="black" points="1155.5,-354 1062.25,-354 1062.25,-318 1155.5,-318 1155.5,-354"/>
<text xml:space="preserve" text-anchor="middle" x="1108.88" y="-330.2" font-family="Helvetica,sans-Serif" font-size="14.00">DetailScreen</text>
</g>
<!-- BoxOfficeScreen&#45;&gt;DetailScreen -->
<g id="edge21" class="edge">
<title>BoxOfficeScreen&#45;&gt;DetailScreen</title>
<path fill="none" stroke="black" d="M1108.88,-468.62C1108.88,-443.27 1108.88,-395.88 1108.88,-365.42"/>
<polygon fill="black" stroke="black" points="1112.38,-365.79 1108.88,-355.79 1105.38,-365.79 1112.38,-365.79"/>
</g>
<!-- DetailScreen&#45;&gt;ModularDependencyContainer -->
<g id="edge29" class="edge">
<title>DetailScreen&#45;&gt;ModularDependencyContainer</title>
<path fill="none" stroke="black" d="M1155.88,-322.07C1236.91,-299.69 1399.64,-254.31 1455.88,-235.5 1481.02,-227.09 1508.49,-216.72 1531.59,-207.64"/>
<polygon fill="black" stroke="black" points="1532.8,-210.93 1540.81,-204 1530.22,-204.42 1532.8,-210.93"/>
</g>
<!-- DetailScreen&#45;&gt;ModularNavigation -->
<g id="edge30" class="edge">
<title>DetailScreen&#45;&gt;ModularNavigation</title>
<path fill="none" stroke="black" d="M1138.4,-317.62C1184.1,-290.7 1272.01,-238.92 1322.89,-208.96"/>
<polygon fill="black" stroke="black" points="1324.4,-212.13 1331.24,-204.04 1320.85,-206.1 1324.4,-212.13"/>
</g>
<!-- DetailScreen&#45;&gt;UIComponents -->
<g id="edge34" class="edge">
<title>DetailScreen&#45;&gt;UIComponents</title>
<path fill="none" stroke="black" d="M1117.86,-317.62C1131.13,-291.93 1156.1,-243.62 1171.81,-213.21"/>
<polygon fill="black" stroke="black" points="1174.77,-215.11 1176.26,-204.62 1168.56,-211.89 1174.77,-215.11"/>
</g>
<!-- DetailScreen&#45;&gt;ImageLoader -->
<g id="edge33" class="edge">
<title>DetailScreen&#45;&gt;ImageLoader</title>
<path fill="none" stroke="black" d="M1061.75,-321.62C1047.67,-317.74 1032.18,-313.58 1017.88,-310 841.44,-265.79 631.24,-220.07 530.5,-198.59"/>
<polygon fill="black" stroke="black" points="531.34,-195.19 520.83,-196.53 529.88,-202.04 531.34,-195.19"/>
</g>
<!-- DetailScreen&#45;&gt;MovieDomain -->
<g id="edge31" class="edge">
<title>DetailScreen&#45;&gt;MovieDomain</title>
<path fill="none" stroke="black" d="M1061.9,-329.01C907.77,-309.3 425.51,-247.01 393.88,-235.5 377.07,-229.38 360.05,-219.33 346.14,-209.87"/>
<polygon fill="black" stroke="black" points="348.48,-207.23 338.28,-204.34 344.45,-212.96 348.48,-207.23"/>
</g>
<!-- DetailScreen&#45;&gt;TMDBClient -->
<g id="edge35" class="edge">
<title>DetailScreen&#45;&gt;TMDBClient</title>
<path fill="none" stroke="black" d="M1067.35,-317.57C944.31,-265.95 581.85,-113.87 446.05,-56.89"/>
<polygon fill="black" stroke="black" points="447.5,-53.7 436.92,-53.06 444.79,-60.16 447.5,-53.7"/>
</g>
<!-- DetailScreen&#45;&gt;WatchlistDomain -->
<g id="edge32" class="edge">
<title>DetailScreen&#45;&gt;WatchlistDomain</title>
<path fill="none" stroke="black" d="M1061.98,-332.12C903.99,-322.02 392.26,-286.1 235.88,-235.5 216.96,-229.38 197.52,-218.96 181.75,-209.26"/>
<polygon fill="black" stroke="black" points="184.03,-206.56 173.71,-204.16 180.28,-212.47 184.03,-206.56"/>
</g>
<!-- DiscoverScreen -->
<g id="node10" class="node">
<title>DiscoverScreen</title>
<polygon fill="#f0e7cc" stroke="black" points="1337.5,-505 1226.25,-505 1226.25,-469 1337.5,-469 1337.5,-505"/>
<text xml:space="preserve" text-anchor="middle" x="1281.88" y="-481.2" font-family="Helvetica,sans-Serif" font-size="14.00">DiscoverScreen</text>
</g>
<!-- DiscoverScreen&#45;&gt;ModularDependencyContainer -->
<g id="edge23" class="edge">
<title>DiscoverScreen&#45;&gt;ModularDependencyContainer</title>
<path fill="none" stroke="black" d="M1337.82,-485.31C1502.6,-481.84 1973.39,-461.09 1951.88,-337"/>
<path fill="none" stroke="black" d="M1951.88,-335C1941.94,-277.66 1784.71,-231.01 1679.3,-205.98"/>
<polygon fill="black" stroke="black" points="1680.32,-202.62 1669.79,-203.75 1678.73,-209.44 1680.32,-202.62"/>
</g>
<!-- DiscoverScreen&#45;&gt;ModularNavigation -->
<g id="edge24" class="edge">
<title>DiscoverScreen&#45;&gt;ModularNavigation</title>
<path fill="none" stroke="black" d="M1597.88,-335C1597.77,-312.56 1474.25,-244.58 1405.98,-208.71"/>
<polygon fill="black" stroke="black" points="1407.75,-205.69 1397.26,-204.16 1404.5,-211.89 1407.75,-205.69"/>
</g>
<!-- DiscoverScreen&#45;&gt;UIComponents -->
<g id="edge28" class="edge">
<title>DiscoverScreen&#45;&gt;UIComponents</title>
<path fill="none" stroke="black" d="M1597.88,-335C1597.14,-181.81 1407.88,-297.68 1267.88,-235.5 1251.58,-228.26 1234.54,-218.4 1220.25,-209.38"/>
<polygon fill="black" stroke="black" points="1222.41,-206.61 1212.11,-204.14 1218.62,-212.5 1222.41,-206.61"/>
<path fill="none" stroke="black" d="M1337.76,-484.13C1428.66,-477.79 1598.43,-450.72 1597.88,-337"/>
</g>
<!-- DiscoverScreen&#45;&gt;ImageLoader -->
<g id="edge26" class="edge">
<title>DiscoverScreen&#45;&gt;ImageLoader</title>
<path fill="none" stroke="black" d="M1246.37,-468.66C1189.11,-440.74 1072.8,-384.18 973.88,-337"/>
</g>
<!-- DiscoverScreen&#45;&gt;MovieDomain -->
<g id="edge25" class="edge">
<title>DiscoverScreen&#45;&gt;MovieDomain</title>
<path fill="none" stroke="black" d="M1225.81,-469.11C1119.3,-437.16 880.25,-366.02 677.88,-310 552.11,-275.19 513.65,-287.29 393.88,-235.5 377.98,-228.62 361.57,-218.85 347.85,-209.79"/>
<polygon fill="black" stroke="black" points="349.88,-206.94 339.63,-204.23 345.95,-212.74 349.88,-206.94"/>
</g>
<!-- DiscoverScreen&#45;&gt;DetailScreen -->
<g id="edge27" class="edge">
<title>DiscoverScreen&#45;&gt;DetailScreen</title>
<path fill="none" stroke="black" d="M1261.69,-468.62C1230.96,-442.15 1172.32,-391.64 1137.3,-361.48"/>
<polygon fill="black" stroke="black" points="1139.94,-359.13 1130.08,-355.26 1135.37,-364.44 1139.94,-359.13"/>
</g>
<!-- WatchlistScreen -->
<g id="node11" class="node">
<title>WatchlistScreen</title>
<polygon fill="#f0e7cc" stroke="black" points="991.63,-505 878.13,-505 878.13,-469 991.63,-469 991.63,-505"/>
<text xml:space="preserve" text-anchor="middle" x="934.88" y="-481.2" font-family="Helvetica,sans-Serif" font-size="14.00">WatchlistScreen</text>
</g>
<!-- WatchlistScreen&#45;&gt;ModularDependencyContainer -->
<g id="edge36" class="edge">
<title>WatchlistScreen&#45;&gt;ModularDependencyContainer</title>
<path fill="none" stroke="black" d="M989.48,-468.56C1059.79,-445.43 1185.14,-401.9 1287.88,-354 1384.67,-308.87 1492.43,-243.99 1547.7,-209.55"/>
<polygon fill="black" stroke="black" points="1549.49,-212.56 1556.11,-204.29 1545.78,-206.63 1549.49,-212.56"/>
</g>
<!-- WatchlistScreen&#45;&gt;ModularNavigation -->
<g id="edge37" class="edge">
<title>WatchlistScreen&#45;&gt;ModularNavigation</title>
<path fill="none" stroke="black" d="M1243.88,-335C1277.3,-291.59 1317.01,-241.82 1340.78,-212.19"/>
<polygon fill="black" stroke="black" points="1343.43,-214.48 1346.97,-204.49 1337.98,-210.1 1343.43,-214.48"/>
</g>
<!-- WatchlistScreen&#45;&gt;UIComponents -->
<g id="edge42" class="edge">
<title>WatchlistScreen&#45;&gt;UIComponents</title>
<path fill="none" stroke="black" d="M1243.88,-335C1272.98,-297.2 1236.88,-243.01 1210,-211.47"/>
<polygon fill="black" stroke="black" points="1212.95,-209.53 1203.72,-204.34 1207.7,-214.16 1212.95,-209.53"/>
<path fill="none" stroke="black" d="M992.05,-474.77C1062.69,-457.75 1181.2,-418.4 1243.88,-337"/>
</g>
<!-- WatchlistScreen&#45;&gt;ImageLoader -->
<g id="edge40" class="edge">
<title>WatchlistScreen&#45;&gt;ImageLoader</title>
<path fill="none" stroke="black" d="M907.93,-468.57C828.88,-417.47 597.57,-267.91 507.43,-209.63"/>
<polygon fill="black" stroke="black" points="509.47,-206.79 499.18,-204.3 505.67,-212.66 509.47,-206.79"/>
</g>
<!-- WatchlistScreen&#45;&gt;TMDBClient -->
<g id="edge39" class="edge">
<title>WatchlistScreen&#45;&gt;TMDBClient</title>
<path fill="none" stroke="black" d="M383.88,-335C288.16,-298.9 69.97,-240.93 59.88,-235.5 29.74,-219.28 -1.71,-220.13 0.88,-186"/>
<path fill="none" stroke="black" d="M877.82,-474.39C776.51,-452.94 559.35,-403.19 383.88,-337"/>
</g>
<!-- WatchlistScreen&#45;&gt;WatchlistDomain -->
<g id="edge38" class="edge">
<title>WatchlistScreen&#45;&gt;WatchlistDomain</title>
<path fill="none" stroke="black" d="M383.88,-335C302.99,-304.49 220.23,-244.14 177.48,-210.36"/>
<polygon fill="black" stroke="black" points="179.92,-207.82 169.92,-204.32 175.55,-213.29 179.92,-207.82"/>
</g>
<!-- WatchlistScreen&#45;&gt;DetailScreen -->
<g id="edge41" class="edge">
<title>WatchlistScreen&#45;&gt;DetailScreen</title>
<path fill="none" stroke="black" d="M955.18,-468.62C986.09,-442.15 1045.07,-391.64 1080.29,-361.48"/>
<polygon fill="black" stroke="black" points="1082.24,-364.42 1087.56,-355.26 1077.68,-359.1 1082.24,-364.42"/>
</g>
<!-- AppCoordinator -->
<g id="node12" class="node">
<title>AppCoordinator</title>
<polygon fill="#f0cce7" stroke="black" points="1250.13,-807 1139.63,-807 1139.63,-771 1250.13,-771 1250.13,-807"/>
<text xml:space="preserve" text-anchor="middle" x="1194.88" y="-783.2" font-family="Helvetica,sans-Serif" font-size="14.00">AppCoordinator</text>
</g>
<!-- AppCoordinator&#45;&gt;ModularDependencyContainer -->
<g id="edge7" class="edge">
<title>AppCoordinator&#45;&gt;ModularDependencyContainer</title>
<path fill="none" stroke="black" d="M1951.88,-486C1964.14,-420.92 1963.19,-402.25 1951.88,-337"/>
<path fill="none" stroke="black" d="M1250.61,-777.74C1420.83,-744.87 1924.06,-635.61 1951.88,-488"/>
</g>
<!-- AppCoordinator&#45;&gt;MovieDomain -->
<g id="edge8" class="edge">
<title>AppCoordinator&#45;&gt;MovieDomain</title>
<path fill="none" stroke="black" d="M265.88,-335C235.84,-299.06 268.29,-244.14 292.82,-211.98"/>
<polygon fill="black" stroke="black" points="295.4,-214.37 298.85,-204.35 289.9,-210.03 295.4,-214.37"/>
</g>
<!-- AppCoordinator&#45;&gt;TMDBClient -->
<g id="edge10" class="edge">
<title>AppCoordinator&#45;&gt;TMDBClient</title>
<path fill="none" stroke="black" d="M1951.88,-486C1999.75,-421.12 2037.65,-378.96 1995.88,-310 1920.79,-186.05 1845.84,-200.14 1706.88,-159 1465.44,-87.53 669.71,-47.34 450.32,-37.43"/>
<polygon fill="black" stroke="black" points="450.77,-33.95 440.62,-37 450.45,-40.94 450.77,-33.95"/>
</g>
<!-- AppCoordinator&#45;&gt;WatchlistDomain -->
<g id="edge11" class="edge">
<title>AppCoordinator&#45;&gt;WatchlistDomain</title>
<path fill="none" stroke="black" d="M265.88,-335C230.56,-292.73 191.12,-242.23 167.96,-212.21"/>
<polygon fill="black" stroke="black" points="170.84,-210.2 161.96,-204.42 165.29,-214.47 170.84,-210.2"/>
<path fill="none" stroke="black" d="M1159.8,-770.51C1062.55,-722.07 781.17,-582.28 545.88,-469 421.92,-409.32 354.1,-442.57 265.88,-337"/>
</g>
<!-- TabCoordinator -->
<g id="node13" class="node">
<title>TabCoordinator</title>
<polygon fill="#f0cce7" stroke="black" points="1249,-656 1140.75,-656 1140.75,-620 1249,-620 1249,-656"/>
<text xml:space="preserve" text-anchor="middle" x="1194.88" y="-632.2" font-family="Helvetica,sans-Serif" font-size="14.00">TabCoordinator</text>
</g>
<!-- AppCoordinator&#45;&gt;TabCoordinator -->
<g id="edge9" class="edge">
<title>AppCoordinator&#45;&gt;TabCoordinator</title>
<path fill="none" stroke="black" d="M1194.88,-770.62C1194.88,-745.27 1194.88,-697.88 1194.88,-667.42"/>
<polygon fill="black" stroke="black" points="1198.38,-667.79 1194.88,-657.79 1191.38,-667.79 1198.38,-667.79"/>
</g>
<!-- TabCoordinator&#45;&gt;ModularDependencyContainer -->
<g id="edge12" class="edge">
<title>TabCoordinator&#45;&gt;ModularDependencyContainer</title>
<path fill="none" stroke="black" d="M1833.88,-486C1888.78,-421.8 1966.31,-420.23 1951.88,-337"/>
</g>
<!-- TabCoordinator&#45;&gt;ModularNavigation -->
<g id="edge16" class="edge">
<title>TabCoordinator&#45;&gt;ModularNavigation</title>
<path fill="none" stroke="black" d="M1833.88,-486C1986.04,-353.84 1638.83,-320.04 1455.88,-235.5 1438.13,-227.3 1418.96,-217.4 1402.6,-208.62"/>
<polygon fill="black" stroke="black" points="1404.6,-205.72 1394.14,-204.04 1401.26,-211.88 1404.6,-205.72"/>
<path fill="none" stroke="black" d="M1249.5,-632.4C1389.88,-619.37 1757.58,-577.23 1833.88,-488"/>
</g>
<!-- TabCoordinator&#45;&gt;BoxOfficeScreen -->
<g id="edge13" class="edge">
<title>TabCoordinator&#45;&gt;BoxOfficeScreen</title>
<path fill="none" stroke="black" d="M1184.84,-619.62C1170.02,-593.93 1142.13,-545.62 1124.59,-515.21"/>
<polygon fill="black" stroke="black" points="1127.63,-513.5 1119.6,-506.58 1121.57,-516.99 1127.63,-513.5"/>
</g>
<!-- TabCoordinator&#45;&gt;DiscoverScreen -->
<g id="edge14" class="edge">
<title>TabCoordinator&#45;&gt;DiscoverScreen</title>
<path fill="none" stroke="black" d="M1205.03,-619.62C1220.02,-593.93 1248.23,-545.62 1265.99,-515.21"/>
<polygon fill="black" stroke="black" points="1269.01,-516.98 1271.03,-506.58 1262.96,-513.45 1269.01,-516.98"/>
</g>
<!-- TabCoordinator&#45;&gt;WatchlistScreen -->
<g id="edge15" class="edge">
<title>TabCoordinator&#45;&gt;WatchlistScreen</title>
<path fill="none" stroke="black" d="M1164.37,-619.59C1129.62,-599.75 1071.13,-566.33 1020.88,-537.5 1005.82,-528.86 989.3,-519.36 974.79,-511"/>
<polygon fill="black" stroke="black" points="976.84,-508.14 966.43,-506.19 973.34,-514.21 976.84,-508.14"/>
</g>
<!-- Modules -->
<g id="node16" class="node">
<title>Modules</title>
<polygon fill="#e0e0e0" stroke="black" points="1228.75,-958 1161,-958 1161,-922 1228.75,-922 1228.75,-958"/>
<text xml:space="preserve" text-anchor="middle" x="1194.88" y="-934.2" font-family="Helvetica,sans-Serif" font-size="14.00">Modules</text>
</g>
<!-- Modules&#45;&gt;ModularDependencyContainer -->
<g id="edge1" class="edge">
<title>Modules&#45;&gt;ModularDependencyContainer</title>
<path fill="none" stroke="black" d="M1228.98,-935.05C1359.77,-917.81 1830.22,-836.06 1995.88,-537.5 2040.14,-457.73 1967.46,-426.89 1951.88,-337"/>
</g>
<!-- Modules&#45;&gt;ImageLoader -->
<g id="edge3" class="edge">
<title>Modules&#45;&gt;ImageLoader</title>
<path fill="none" stroke="black" d="M501.88,-486C459.46,-394.06 463.44,-269.84 467.92,-214.57"/>
<polygon fill="black" stroke="black" points="471.39,-215.03 468.79,-204.76 464.42,-214.41 471.39,-215.03"/>
</g>
<!-- Modules&#45;&gt;MovieDomain -->
<g id="edge4" class="edge">
<title>Modules&#45;&gt;MovieDomain</title>
<path fill="none" stroke="black" d="M147.88,-335C138.26,-319.71 230.7,-248.04 282.03,-209.94"/>
<polygon fill="black" stroke="black" points="283.92,-212.9 289.88,-204.14 279.76,-207.27 283.92,-212.9"/>
</g>
<!-- Modules&#45;&gt;TMDBClient -->
<g id="edge2" class="edge">
<title>Modules&#45;&gt;TMDBClient</title>
<path fill="none" stroke="black" d="M1160.65,-930.15C1040.6,-897 638.63,-767.47 501.88,-488"/>
<path fill="none" stroke="black" d="M147.88,-335C98.33,-256.27 -6.14,-278.76 0.88,-186"/>
<path fill="none" stroke="black" d="M0.88,-184C6.23,-113.27 230.11,-64.04 337.52,-44.44"/>
<polygon fill="black" stroke="black" points="338.07,-47.9 347.29,-42.68 336.83,-41.01 338.07,-47.9"/>
<path fill="none" stroke="black" d="M501.88,-486C384.18,-362.37 238.8,-481.47 147.88,-337"/>
</g>
<!-- Modules&#45;&gt;WatchlistDomain -->
<g id="edge5" class="edge">
<title>Modules&#45;&gt;WatchlistDomain</title>
<path fill="none" stroke="black" d="M147.88,-335C124.81,-298.34 131.91,-245.9 139.59,-214"/>
<polygon fill="black" stroke="black" points="142.88,-215.27 142.01,-204.71 136.11,-213.5 142.88,-215.27"/>
</g>
<!-- Modules&#45;&gt;AppCoordinator -->
<g id="edge6" class="edge">
<title>Modules&#45;&gt;AppCoordinator</title>
<path fill="none" stroke="black" d="M1194.88,-921.62C1194.88,-896.27 1194.88,-848.88 1194.88,-818.42"/>
<polygon fill="black" stroke="black" points="1198.38,-818.79 1194.88,-808.79 1191.38,-818.79 1198.38,-818.79"/>
</g>
</g>
</svg>
