<?xml version="1.0" encoding="UTF-8" standalone="no"?>
<!DOCTYPE svg PUBLIC "-//W3C//DTD SVG 1.1//EN"
 "http://www.w3.org/Graphics/SVG/1.1/DTD/svg11.dtd">
<!-- Generated by graphviz version 14.1.2 (20260124.0452)
 -->
<!-- Title: ModuleDependencies Pages: 1 -->
<svg width="2352pt" height="1071pt"
 viewBox="0.00 0.00 2352.00 1071.00" xmlns="http://www.w3.org/2000/svg" xmlns:xlink="http://www.w3.org/1999/xlink">
<g id="graph0" class="graph" transform="scale(1 1) rotate(0) translate(36 1034.5)">
<title>ModuleDependencies</title>
<polygon fill="white" stroke="none" points="-36,36 -36,-1034.5 2316.4,-1034.5 2316.4,36 -36,36"/>
<g id="clust1" class="cluster">
<title>cluster_utilities</title>
<polygon fill="#e8e8f8" stroke="#e8e8f8" points="1704.4,-159 1704.4,-235.5 2272.4,-235.5 2272.4,-159 1704.4,-159"/>
<text xml:space="preserve" text-anchor="middle" x="1988.4" y="-218.2" font-family="Times,serif" font-size="14.00">Utilities</text>
</g>
<g id="clust2" class="cluster">
<title>cluster_clients</title>
<polygon fill="#e8f4f8" stroke="#e8f4f8" points="191.4,-8 191.4,-235.5 781.4,-235.5 781.4,-8 191.4,-8"/>
<text xml:space="preserve" text-anchor="middle" x="486.4" y="-218.2" font-family="Times,serif" font-size="14.00">Clients</text>
</g>
<g id="clust3" class="cluster">
<title>cluster_components</title>
<polygon fill="#f0f4e8" stroke="#f0f4e8" points="1487.4,-310 1487.4,-386.5 1625.4,-386.5 1625.4,-310 1487.4,-310"/>
<text xml:space="preserve" text-anchor="middle" x="1556.4" y="-369.2" font-family="Times,serif" font-size="14.00">Components</text>
</g>
<g id="clust4" class="cluster">
<title>cluster_screens</title>
<polygon fill="#f8f4e8" stroke="#f8f4e8" points="1004.4,-310 1004.4,-537.5 1479.4,-537.5 1479.4,-310 1004.4,-310"/>
<text xml:space="preserve" text-anchor="middle" x="1241.9" y="-520.2" font-family="Times,serif" font-size="14.00">Screens</text>
</g>
<g id="clust5" class="cluster">
<title>cluster_coordinators</title>
<polygon fill="#f8e8f4" stroke="#f8e8f4" points="1005.4,-612 1005.4,-839.5 1131.4,-839.5 1131.4,-612 1005.4,-612"/>
<text xml:space="preserve" text-anchor="middle" x="1068.4" y="-822.2" font-family="Times,serif" font-size="14.00">Coordinators</text>
</g>
<g id="clust6" class="cluster">
<title>cluster_macros</title>
<polygon fill="#f4f8e8" stroke="#f4f8e8" points="1786.4,-8 1786.4,-84.5 2186.4,-84.5 2186.4,-8 1786.4,-8"/>
<text xml:space="preserve" text-anchor="middle" x="1986.4" y="-67.2" font-family="Times,serif" font-size="14.00">Macros</text>
</g>
<g id="clust7" class="cluster">
<title>cluster_root</title>
<polygon fill="#f0f0f0" stroke="#f0f0f0" points="777.4,-914 777.4,-990.5 861.4,-990.5 861.4,-914 777.4,-914"/>
<text xml:space="preserve" text-anchor="middle" x="819.4" y="-973.2" font-family="Times,serif" font-size="14.00">Root</text>
</g>
<!-- ModularDependencyContainer -->
<g id="node1" class="node">
<title>ModularDependencyContainer</title>
<polygon fill="#ccccf0" stroke="black" points="2264.28,-203 2064.53,-203 2064.53,-167 2264.28,-167 2264.28,-203"/>
<text xml:space="preserve" text-anchor="middle" x="2164.4" y="-179.2" font-family="Helvetica,sans-Serif" font-size="14.00">ModularDependencyContainer</text>
</g>
<!-- DependencyRequirementsMacro -->
<g id="node17" class="node">
<title>DependencyRequirementsMacro</title>
<polygon fill="#e7f0cc" stroke="black" points="2178.78,-52 1964.03,-52 1964.03,-16 2178.78,-16 2178.78,-52"/>
<text xml:space="preserve" text-anchor="middle" x="2071.4" y="-28.2" font-family="Helvetica,sans-Serif" font-size="14.00">DependencyRequirementsMacro</text>
</g>
<!-- ModularDependencyContainer&#45;&gt;DependencyRequirementsMacro -->
<g id="edge50" class="edge">
<title>ModularDependencyContainer&#45;&gt;DependencyRequirementsMacro</title>
<path fill="none" stroke="black" d="M2153.55,-166.62C2137.45,-140.82 2107.1,-92.2 2088.14,-61.82"/>
<polygon fill="black" stroke="black" points="2091.25,-60.19 2082.99,-53.56 2085.31,-63.89 2091.25,-60.19"/>
</g>
<!-- ModularNavigation -->
<g id="node2" class="node">
<title>ModularNavigation</title>
<polygon fill="#ccccf0" stroke="black" points="2006.03,-203 1876.78,-203 1876.78,-167 2006.03,-167 2006.03,-203"/>
<text xml:space="preserve" text-anchor="middle" x="1941.4" y="-179.2" font-family="Helvetica,sans-Serif" font-size="14.00">ModularNavigation</text>
</g>
<!-- UIComponents -->
<g id="node3" class="node">
<title>UIComponents</title>
<polygon fill="#ccccf0" stroke="black" points="1818.78,-203 1712.03,-203 1712.03,-167 1818.78,-167 1818.78,-203"/>
<text xml:space="preserve" text-anchor="middle" x="1765.4" y="-179.2" font-family="Helvetica,sans-Serif" font-size="14.00">UIComponents</text>
</g>
<!-- ImageLoader -->
<g id="node4" class="node">
<title>ImageLoader</title>
<polygon fill="#cce7f0" stroke="black" points="773.53,-203 677.28,-203 677.28,-167 773.53,-167 773.53,-203"/>
<text xml:space="preserve" text-anchor="middle" x="725.4" y="-179.2" font-family="Helvetica,sans-Serif" font-size="14.00">ImageLoader</text>
</g>
<!-- UIComponents&#45;&gt;ImageLoader -->
<g id="edge52" class="edge">
<title>UIComponents&#45;&gt;ImageLoader</title>
<path fill="none" stroke="black" d="M1711.66,-185C1402.89,-185 1094.12,-185 785.35,-185"/>
<polygon fill="black" stroke="black" points="785.41,-181.5 775.41,-185 785.41,-188.5 785.41,-181.5"/>
</g>
<!-- CopyableMacro -->
<g id="node16" class="node">
<title>CopyableMacro</title>
<polygon fill="#e7f0cc" stroke="black" points="1906.03,-52 1794.78,-52 1794.78,-16 1906.03,-16 1906.03,-52"/>
<text xml:space="preserve" text-anchor="middle" x="1850.4" y="-28.2" font-family="Helvetica,sans-Serif" font-size="14.00">CopyableMacro</text>
</g>
<!-- UIComponents&#45;&gt;CopyableMacro -->
<g id="edge51" class="edge">
<title>UIComponents&#45;&gt;CopyableMacro</title>
<path fill="none" stroke="black" d="M1775.32,-166.62C1789.97,-140.93 1817.53,-92.62 1834.88,-62.21"/>
<polygon fill="black" stroke="black" points="1837.88,-64.01 1839.8,-53.59 1831.8,-60.54 1837.88,-64.01"/>
</g>
<!-- MovieDomain -->
<g id="node5" class="node">
<title>MovieDomain</title>
<polygon fill="#cce7f0" stroke="black" points="619.4,-203 519.4,-203 519.4,-167 619.4,-167 619.4,-203"/>
<text xml:space="preserve" text-anchor="middle" x="569.4" y="-179.2" font-family="Helvetica,sans-Serif" font-size="14.00">MovieDomain</text>
</g>
<!-- TMDBClient -->
<g id="node7" class="node">
<title>TMDBClient</title>
<polygon fill="#cce7f0" stroke="black" points="614.15,-52 524.65,-52 524.65,-16 614.15,-16 614.15,-52"/>
<text xml:space="preserve" text-anchor="middle" x="569.4" y="-28.2" font-family="Helvetica,sans-Serif" font-size="14.00">TMDBClient</text>
</g>
<!-- MovieDomain&#45;&gt;TMDBClient -->
<g id="edge49" class="edge">
<title>MovieDomain&#45;&gt;TMDBClient</title>
<path fill="none" stroke="black" d="M569.4,-166.62C569.4,-141.27 569.4,-93.88 569.4,-63.42"/>
<polygon fill="black" stroke="black" points="572.9,-63.79 569.4,-53.79 565.9,-63.79 572.9,-63.79"/>
</g>
<!-- ShareClient -->
<g id="node6" class="node">
<title>ShareClient</title>
<polygon fill="#cce7f0" stroke="black" points="461.65,-203 375.15,-203 375.15,-167 461.65,-167 461.65,-203"/>
<text xml:space="preserve" text-anchor="middle" x="418.4" y="-179.2" font-family="Helvetica,sans-Serif" font-size="14.00">ShareClient</text>
</g>
<!-- WatchlistDomain -->
<g id="node8" class="node">
<title>WatchlistDomain</title>
<polygon fill="#cce7f0" stroke="black" points="317.4,-203 199.4,-203 199.4,-167 317.4,-167 317.4,-203"/>
<text xml:space="preserve" text-anchor="middle" x="258.4" y="-179.2" font-family="Helvetica,sans-Serif" font-size="14.00">WatchlistDomain</text>
</g>
<!-- ShareComponent -->
<g id="node9" class="node">
<title>ShareComponent</title>
<polygon fill="#dae7cc" stroke="black" points="1617.65,-354 1495.15,-354 1495.15,-318 1617.65,-318 1617.65,-354"/>
<text xml:space="preserve" text-anchor="middle" x="1556.4" y="-330.2" font-family="Helvetica,sans-Serif" font-size="14.00">ShareComponent</text>
</g>
<!-- ShareComponent&#45;&gt;ModularDependencyContainer -->
<g id="edge18" class="edge">
<title>ShareComponent&#45;&gt;ModularDependencyContainer</title>
<path fill="none" stroke="black" d="M1618.05,-325.47C1710.02,-310.53 1888.1,-278.75 2035.4,-235.5 2061.65,-227.79 2090.11,-217.13 2113.6,-207.67"/>
<polygon fill="black" stroke="black" points="2114.68,-211.01 2122.62,-204 2112.04,-204.53 2114.68,-211.01"/>
</g>
<!-- ShareComponent&#45;&gt;ShareClient -->
<g id="edge19" class="edge">
<title>ShareComponent&#45;&gt;ShareClient</title>
<path fill="none" stroke="black" d="M1516.4,-317.52C1508.26,-314.56 1499.66,-311.85 1491.4,-310 1056.11,-212.33 911.24,-383.55 490.4,-235.5 474.67,-229.96 459.16,-220.05 446.6,-210.54"/>
<polygon fill="black" stroke="black" points="448.81,-207.83 438.79,-204.37 444.46,-213.32 448.81,-207.83"/>
</g>
<!-- BoxOfficeScreen -->
<g id="node10" class="node">
<title>BoxOfficeScreen</title>
<polygon fill="#f0e7cc" stroke="black" points="1471.4,-505 1353.4,-505 1353.4,-469 1471.4,-469 1471.4,-505"/>
<text xml:space="preserve" text-anchor="middle" x="1412.4" y="-481.2" font-family="Helvetica,sans-Serif" font-size="14.00">BoxOfficeScreen</text>
</g>
<!-- BoxOfficeScreen&#45;&gt;ModularDependencyContainer -->
<g id="edge20" class="edge">
<title>BoxOfficeScreen&#45;&gt;ModularDependencyContainer</title>
<path fill="none" stroke="black" d="M1471.71,-476.03C1615.81,-451.77 1973.44,-391.29 1985.4,-386.5 2022.14,-371.8 2026.36,-358.76 2059.4,-337"/>
</g>
<!-- BoxOfficeScreen&#45;&gt;ModularNavigation -->
<g id="edge21" class="edge">
<title>BoxOfficeScreen&#45;&gt;ModularNavigation</title>
<path fill="none" stroke="black" d="M1941.4,-335C1957.26,-295.59 1952.77,-245.44 1947.52,-214.54"/>
<polygon fill="black" stroke="black" points="1950.98,-214 1945.71,-204.8 1944.1,-215.28 1950.98,-214"/>
</g>
<!-- BoxOfficeScreen&#45;&gt;UIComponents -->
<g id="edge26" class="edge">
<title>BoxOfficeScreen&#45;&gt;UIComponents</title>
<path fill="none" stroke="black" d="M1941.4,-335C1948.31,-317.82 1853.34,-247.67 1800.11,-210.07"/>
<polygon fill="black" stroke="black" points="1802.13,-207.21 1791.93,-204.32 1798.1,-212.93 1802.13,-207.21"/>
<path fill="none" stroke="black" d="M1471.77,-475.86C1578.04,-457.25 1796.35,-416.74 1867.4,-386.5 1903.81,-371 1926.63,-373.71 1941.4,-337"/>
</g>
<!-- BoxOfficeScreen&#45;&gt;ImageLoader -->
<g id="edge23" class="edge">
<title>BoxOfficeScreen&#45;&gt;ImageLoader</title>
<path fill="none" stroke="black" d="M1084.4,-335C974.37,-290.79 846.24,-237.06 776.7,-207.72"/>
<polygon fill="black" stroke="black" points="778.44,-204.65 767.86,-203.99 775.71,-211.1 778.44,-204.65"/>
</g>
<!-- BoxOfficeScreen&#45;&gt;MovieDomain -->
<g id="edge22" class="edge">
<title>BoxOfficeScreen&#45;&gt;MovieDomain</title>
<path fill="none" stroke="black" d="M1084.4,-335C899.98,-260.89 832.08,-311.44 648.4,-235.5 632.28,-228.83 615.72,-219 601.95,-209.85"/>
<polygon fill="black" stroke="black" points="603.95,-206.98 593.72,-204.22 600,-212.75 603.95,-206.98"/>
<path fill="none" stroke="black" d="M1353.16,-470.48C1296.86,-454.29 1211.01,-425.76 1143.4,-386.5 1113.8,-369.31 1116.16,-349.76 1084.4,-337"/>
</g>
<!-- BoxOfficeScreen&#45;&gt;ShareComponent -->
<g id="edge25" class="edge">
<title>BoxOfficeScreen&#45;&gt;ShareComponent</title>
<path fill="none" stroke="black" d="M1429.2,-468.62C1454.57,-442.37 1502.77,-392.5 1532,-362.25"/>
<polygon fill="black" stroke="black" points="1534.23,-364.98 1538.66,-355.36 1529.19,-360.12 1534.23,-364.98"/>
</g>
<!-- DetailScreen -->
<g id="node11" class="node">
<title>DetailScreen</title>
<polygon fill="#f0e7cc" stroke="black" points="1266.03,-354 1172.78,-354 1172.78,-318 1266.03,-318 1266.03,-354"/>
<text xml:space="preserve" text-anchor="middle" x="1219.4" y="-330.2" font-family="Helvetica,sans-Serif" font-size="14.00">DetailScreen</text>
</g>
<!-- BoxOfficeScreen&#45;&gt;DetailScreen -->
<g id="edge24" class="edge">
<title>BoxOfficeScreen&#45;&gt;DetailScreen</title>
<path fill="none" stroke="black" d="M1389.89,-468.62C1355.46,-442.04 1289.63,-391.22 1250.61,-361.09"/>
<polygon fill="black" stroke="black" points="1253.03,-358.54 1242.98,-355.2 1248.75,-364.08 1253.03,-358.54"/>
</g>
<!-- DetailScreen&#45;&gt;ModularDependencyContainer -->
<g id="edge33" class="edge">
<title>DetailScreen&#45;&gt;ModularDependencyContainer</title>
<path fill="none" stroke="black" d="M1266.34,-329.96C1428.66,-312.42 1960.44,-254.15 2035.4,-235.5 2062.66,-228.72 2091.96,-217.79 2115.74,-207.92"/>
<polygon fill="black" stroke="black" points="2117.01,-211.19 2124.86,-204.07 2114.28,-204.74 2117.01,-211.19"/>
</g>
<!-- DetailScreen&#45;&gt;ModularNavigation -->
<g id="edge34" class="edge">
<title>DetailScreen&#45;&gt;ModularNavigation</title>
<path fill="none" stroke="black" d="M1266.32,-329.58C1392.8,-314.66 1738.59,-271.67 1847.4,-235.5 1866.97,-229 1887.37,-218.73 1904.15,-209.23"/>
<polygon fill="black" stroke="black" points="1905.89,-212.27 1912.78,-204.22 1902.38,-206.22 1905.89,-212.27"/>
</g>
<!-- DetailScreen&#45;&gt;UIComponents -->
<g id="edge38" class="edge">
<title>DetailScreen&#45;&gt;UIComponents</title>
<path fill="none" stroke="black" d="M1266.43,-322.17C1364.21,-295.48 1589.6,-233.98 1700.87,-203.61"/>
<polygon fill="black" stroke="black" points="1701.73,-207 1710.46,-200.99 1699.89,-200.25 1701.73,-207"/>
</g>
<!-- DetailScreen&#45;&gt;ImageLoader -->
<g id="edge37" class="edge">
<title>DetailScreen&#45;&gt;ImageLoader</title>
<path fill="none" stroke="black" d="M1172.48,-320.85C1082.07,-293.58 883.87,-233.8 784.57,-203.84"/>
<polygon fill="black" stroke="black" points="785.86,-200.58 775.27,-201.04 783.84,-207.28 785.86,-200.58"/>
</g>
<!-- DetailScreen&#45;&gt;MovieDomain -->
<g id="edge35" class="edge">
<title>DetailScreen&#45;&gt;MovieDomain</title>
<path fill="none" stroke="black" d="M1172.42,-320.99C1158.35,-317.1 1142.82,-313.09 1128.4,-310 917.31,-264.78 850.69,-310.92 648.4,-235.5 631.65,-229.25 614.64,-219.18 600.71,-209.74"/>
<polygon fill="black" stroke="black" points="603.05,-207.1 592.85,-204.23 599.03,-212.84 603.05,-207.1"/>
</g>
<!-- DetailScreen&#45;&gt;TMDBClient -->
<g id="edge39" class="edge">
<title>DetailScreen&#45;&gt;TMDBClient</title>
<path fill="none" stroke="black" d="M1354.4,-184C1286.59,-53.8 794.32,-37.04 625.81,-35.14"/>
<polygon fill="black" stroke="black" points="626.02,-31.65 615.99,-35.05 625.96,-38.65 626.02,-31.65"/>
<path fill="none" stroke="black" d="M1256.53,-317.71C1305.76,-292.18 1383.27,-241.42 1354.4,-186"/>
</g>
<!-- DetailScreen&#45;&gt;WatchlistDomain -->
<g id="edge36" class="edge">
<title>DetailScreen&#45;&gt;WatchlistDomain</title>
<path fill="none" stroke="black" d="M1172.53,-320.46C1158.46,-316.54 1142.91,-312.66 1128.4,-310 785.01,-246.96 679.56,-339.9 346.4,-235.5 327.43,-229.55 307.99,-219.16 292.22,-209.42"/>
<polygon fill="black" stroke="black" points="294.51,-206.73 284.19,-204.3 290.74,-212.63 294.51,-206.73"/>
</g>
<!-- DiscoverScreen -->
<g id="node12" class="node">
<title>DiscoverScreen</title>
<polygon fill="#f0e7cc" stroke="black" points="1295.03,-505 1183.78,-505 1183.78,-469 1295.03,-469 1295.03,-505"/>
<text xml:space="preserve" text-anchor="middle" x="1239.4" y="-481.2" font-family="Helvetica,sans-Serif" font-size="14.00">DiscoverScreen</text>
</g>
<!-- DiscoverScreen&#45;&gt;ModularDependencyContainer -->
<g id="edge27" class="edge">
<title>DiscoverScreen&#45;&gt;ModularDependencyContainer</title>
<path fill="none" stroke="black" d="M1295.11,-474.47C1304.86,-472.56 1314.92,-470.67 1324.4,-469 1651.28,-411.51 1782.21,-519.53 2059.4,-337"/>
</g>
<!-- DiscoverScreen&#45;&gt;ModularNavigation -->
<g id="edge28" class="edge">
<title>DiscoverScreen&#45;&gt;ModularNavigation</title>
<path fill="none" stroke="black" d="M1295.18,-474.8C1304.92,-472.86 1314.95,-470.86 1324.4,-469 1513.19,-431.8 1571.48,-459.77 1749.4,-386.5 1785.99,-371.43 1789.98,-358.18 1823.4,-337"/>
</g>
<!-- DiscoverScreen&#45;&gt;UIComponents -->
<g id="edge32" class="edge">
<title>DiscoverScreen&#45;&gt;UIComponents</title>
<path fill="none" stroke="black" d="M1295.29,-473.4C1397.8,-450.09 1608.3,-401.28 1639.4,-386.5 1672.52,-370.76 1678.08,-361.45 1705.4,-337"/>
</g>
<!-- DiscoverScreen&#45;&gt;ImageLoader -->
<g id="edge30" class="edge">
<title>DiscoverScreen&#45;&gt;ImageLoader</title>
<path fill="none" stroke="black" d="M1183.41,-472.54C1131.69,-457.96 1054.85,-430.68 1000.4,-386.5 979.68,-369.68 984.16,-356.92 966.4,-337"/>
</g>
<!-- DiscoverScreen&#45;&gt;MovieDomain -->
<g id="edge29" class="edge">
<title>DiscoverScreen&#45;&gt;MovieDomain</title>
<path fill="none" stroke="black" d="M1183.51,-472.09C1119.22,-455.26 1011.11,-424.42 922.4,-386.5 794.55,-331.85 768.25,-306 648.4,-235.5 634.26,-227.18 618.93,-217.69 605.57,-209.25"/>
<polygon fill="black" stroke="black" points="607.83,-206.54 597.51,-204.14 604.08,-212.45 607.83,-206.54"/>
</g>
<!-- DiscoverScreen&#45;&gt;DetailScreen -->
<g id="edge31" class="edge">
<title>DiscoverScreen&#45;&gt;DetailScreen</title>
<path fill="none" stroke="black" d="M1237.07,-468.62C1233.67,-443.27 1227.31,-395.88 1223.22,-365.42"/>
<polygon fill="black" stroke="black" points="1226.72,-365.22 1221.92,-355.77 1219.78,-366.15 1226.72,-365.22"/>
</g>
<!-- WatchlistScreen -->
<g id="node13" class="node">
<title>WatchlistScreen</title>
<polygon fill="#f0e7cc" stroke="black" points="1126.15,-505 1012.65,-505 1012.65,-469 1126.15,-469 1126.15,-505"/>
<text xml:space="preserve" text-anchor="middle" x="1069.4" y="-481.2" font-family="Helvetica,sans-Serif" font-size="14.00">WatchlistScreen</text>
</g>
<!-- WatchlistScreen&#45;&gt;ModularDependencyContainer -->
<g id="edge40" class="edge">
<title>WatchlistScreen&#45;&gt;ModularDependencyContainer</title>
<path fill="none" stroke="black" d="M1126.44,-473.92C1135.76,-472.14 1145.34,-470.43 1154.4,-469 1555.93,-405.73 1719.92,-560.55 2059.4,-337"/>
<path fill="none" stroke="black" d="M2059.4,-335C2105.07,-304.93 2136.93,-247.56 2152.81,-213.46"/>
<polygon fill="black" stroke="black" points="2155.87,-215.2 2156.78,-204.64 2149.48,-212.32 2155.87,-215.2"/>
</g>
<!-- WatchlistScreen&#45;&gt;ModularNavigation -->
<g id="edge41" class="edge">
<title>WatchlistScreen&#45;&gt;ModularNavigation</title>
<path fill="none" stroke="black" d="M1823.4,-335C1871.65,-304.43 1908.6,-247.08 1927.47,-213.14"/>
<polygon fill="black" stroke="black" points="1930.33,-215.21 1932.02,-204.75 1924.18,-211.87 1930.33,-215.21"/>
<path fill="none" stroke="black" d="M1126.47,-474.1C1135.79,-472.3 1145.35,-470.53 1154.4,-469 1417.64,-424.47 1499.89,-481.46 1749.4,-386.5 1786.38,-372.43 1789.98,-358.18 1823.4,-337"/>
</g>
<!-- WatchlistScreen&#45;&gt;UIComponents -->
<g id="edge48" class="edge">
<title>WatchlistScreen&#45;&gt;UIComponents</title>
<path fill="none" stroke="black" d="M1705.4,-335C1740.75,-303.36 1755.62,-247.98 1761.61,-214.38"/>
<polygon fill="black" stroke="black" points="1765.06,-214.99 1763.2,-204.56 1758.15,-213.88 1765.06,-214.99"/>
<path fill="none" stroke="black" d="M1126.51,-474.34C1135.83,-472.51 1145.38,-470.67 1154.4,-469 1402.02,-423.19 1517.76,-504.94 1705.4,-337"/>
</g>
<!-- WatchlistScreen&#45;&gt;ImageLoader -->
<g id="edge44" class="edge">
<title>WatchlistScreen&#45;&gt;ImageLoader</title>
<path fill="none" stroke="black" d="M1057.41,-468.76C1043.63,-448.93 1020.34,-415.39 1000.4,-386.5 985.24,-364.53 984.16,-356.92 966.4,-337"/>
</g>
<!-- WatchlistScreen&#45;&gt;ShareClient -->
<g id="edge46" class="edge">
<title>WatchlistScreen&#45;&gt;ShareClient</title>
<path fill="none" stroke="black" d="M1018.72,-468.63C915.64,-432.34 675.66,-342.87 490.4,-235.5 477.15,-227.82 463.14,-218.49 451.05,-210.02"/>
<polygon fill="black" stroke="black" points="453.22,-207.26 443.04,-204.32 449.16,-212.97 453.22,-207.26"/>
</g>
<!-- WatchlistScreen&#45;&gt;TMDBClient -->
<g id="edge43" class="edge">
<title>WatchlistScreen&#45;&gt;TMDBClient</title>
<path fill="none" stroke="black" d="M1126.57,-470.43C1192.57,-451.28 1295.29,-417.51 1320.4,-386.5 1377.28,-316.26 1396.16,-266.16 1354.4,-186"/>
</g>
<!-- WatchlistScreen&#45;&gt;WatchlistDomain -->
<g id="edge42" class="edge">
<title>WatchlistScreen&#45;&gt;WatchlistDomain</title>
<path fill="none" stroke="black" d="M1012.18,-481.68C917,-472.97 721.47,-448.54 568.4,-386.5 456.05,-340.96 340.49,-253.26 287.8,-210.56"/>
<polygon fill="black" stroke="black" points="290.13,-207.95 280.18,-204.34 285.71,-213.37 290.13,-207.95"/>
</g>
<!-- WatchlistScreen&#45;&gt;ShareComponent -->
<g id="edge47" class="edge">
<title>WatchlistScreen&#45;&gt;ShareComponent</title>
<path fill="none" stroke="black" d="M1126.51,-468.92C1192.17,-449.23 1303.16,-415.82 1398.4,-386.5 1428.6,-377.2 1461.99,-366.77 1490.27,-357.88"/>
<polygon fill="black" stroke="black" points="1491.31,-361.22 1499.79,-354.88 1489.21,-354.55 1491.31,-361.22"/>
</g>
<!-- WatchlistScreen&#45;&gt;DetailScreen -->
<g id="edge45" class="edge">
<title>WatchlistScreen&#45;&gt;DetailScreen</title>
<path fill="none" stroke="black" d="M1086.9,-468.62C1113.32,-442.37 1163.53,-392.5 1193.99,-362.25"/>
<polygon fill="black" stroke="black" points="1196.31,-364.87 1200.94,-355.34 1191.38,-359.9 1196.31,-364.87"/>
</g>
<!-- AppCoordinator -->
<g id="node14" class="node">
<title>AppCoordinator</title>
<polygon fill="#f0cce7" stroke="black" points="1123.65,-807 1013.15,-807 1013.15,-771 1123.65,-771 1123.65,-807"/>
<text xml:space="preserve" text-anchor="middle" x="1068.4" y="-783.2" font-family="Helvetica,sans-Serif" font-size="14.00">AppCoordinator</text>
</g>
<!-- AppCoordinator&#45;&gt;ModularDependencyContainer -->
<g id="edge8" class="edge">
<title>AppCoordinator&#45;&gt;ModularDependencyContainer</title>
<path fill="none" stroke="black" d="M1123.99,-781.34C1275.45,-761.56 1705.48,-694.5 2025.4,-537.5 2124.12,-489.05 2172.86,-485.17 2221.4,-386.5 2250.21,-327.95 2210.16,-252.42 2183.96,-212.87"/>
<polygon fill="black" stroke="black" points="2186.87,-210.92 2178.34,-204.64 2181.09,-214.87 2186.87,-210.92"/>
</g>
<!-- AppCoordinator&#45;&gt;MovieDomain -->
<g id="edge9" class="edge">
<title>AppCoordinator&#45;&gt;MovieDomain</title>
<path fill="none" stroke="black" d="M1050.22,-770.75C969.93,-694.57 650.99,-391.88 646.4,-386.5 629.09,-366.19 625.28,-360.38 612.4,-337"/>
</g>
<!-- AppCoordinator&#45;&gt;TMDBClient -->
<g id="edge11" class="edge">
<title>AppCoordinator&#45;&gt;TMDBClient</title>
<path fill="none" stroke="black" d="M1022.22,-770.53C812.4,-689.96 -34.66,-351.12 111.4,-186"/>
</g>
<!-- AppCoordinator&#45;&gt;WatchlistDomain -->
<g id="edge12" class="edge">
<title>AppCoordinator&#45;&gt;WatchlistDomain</title>
<path fill="none" stroke="black" d="M1041.89,-770.57C1004.04,-745.57 932.43,-697.95 872.4,-656 756.32,-574.88 738.18,-537.82 614.4,-469 529.65,-421.87 489.5,-445.33 412.4,-386.5 348.23,-337.53 296.78,-255.44 272.89,-213.09"/>
<polygon fill="black" stroke="black" points="276.07,-211.6 268.16,-204.55 269.95,-214.99 276.07,-211.6"/>
</g>
<!-- TabCoordinator -->
<g id="node15" class="node">
<title>TabCoordinator</title>
<polygon fill="#f0cce7" stroke="black" points="1123.53,-656 1015.28,-656 1015.28,-620 1123.53,-620 1123.53,-656"/>
<text xml:space="preserve" text-anchor="middle" x="1069.4" y="-632.2" font-family="Helvetica,sans-Serif" font-size="14.00">TabCoordinator</text>
</g>
<!-- AppCoordinator&#45;&gt;TabCoordinator -->
<g id="edge10" class="edge">
<title>AppCoordinator&#45;&gt;TabCoordinator</title>
<path fill="none" stroke="black" d="M1068.52,-770.62C1068.69,-745.27 1069.01,-697.88 1069.21,-667.42"/>
<polygon fill="black" stroke="black" points="1072.71,-667.81 1069.28,-657.79 1065.71,-667.76 1072.71,-667.81"/>
</g>
<!-- TabCoordinator&#45;&gt;ModularDependencyContainer -->
<g id="edge13" class="edge">
<title>TabCoordinator&#45;&gt;ModularDependencyContainer</title>
<path fill="none" stroke="black" d="M2177.4,-335C2182.11,-293.27 2175.68,-244.8 2170.31,-214.76"/>
<polygon fill="black" stroke="black" points="2173.75,-214.13 2168.46,-204.95 2166.87,-215.42 2173.75,-214.13"/>
</g>
<!-- TabCoordinator&#45;&gt;ModularNavigation -->
<g id="edge17" class="edge">
<title>TabCoordinator&#45;&gt;ModularNavigation</title>
<path fill="none" stroke="black" d="M1124.03,-633.73C1357.01,-618.48 2252.46,-546.01 2177.4,-337"/>
<path fill="none" stroke="black" d="M2177.4,-335C2178.69,-323.64 2049.7,-247.99 1981.91,-209.06"/>
<polygon fill="black" stroke="black" points="1983.71,-206.05 1973.29,-204.12 1980.23,-212.13 1983.71,-206.05"/>
</g>
<!-- TabCoordinator&#45;&gt;BoxOfficeScreen -->
<g id="edge14" class="edge">
<title>TabCoordinator&#45;&gt;BoxOfficeScreen</title>
<path fill="none" stroke="black" d="M1120.12,-619.59C1172.22,-601.15 1255.25,-570.24 1324.4,-537.5 1341.17,-529.56 1359.11,-519.73 1374.39,-510.92"/>
<polygon fill="black" stroke="black" points="1375.82,-514.14 1382.7,-506.08 1372.3,-508.09 1375.82,-514.14"/>
</g>
<!-- TabCoordinator&#45;&gt;DiscoverScreen -->
<g id="edge15" class="edge">
<title>TabCoordinator&#45;&gt;DiscoverScreen</title>
<path fill="none" stroke="black" d="M1089.24,-619.62C1119.31,-593.26 1176.57,-543.07 1211.04,-512.86"/>
<polygon fill="black" stroke="black" points="1213.34,-515.49 1218.56,-506.27 1208.73,-510.23 1213.34,-515.49"/>
</g>
<!-- TabCoordinator&#45;&gt;WatchlistScreen -->
<g id="edge16" class="edge">
<title>TabCoordinator&#45;&gt;WatchlistScreen</title>
<path fill="none" stroke="black" d="M1069.4,-619.62C1069.4,-594.27 1069.4,-546.88 1069.4,-516.42"/>
<polygon fill="black" stroke="black" points="1072.9,-516.79 1069.4,-506.79 1065.9,-516.79 1072.9,-516.79"/>
</g>
<!-- Modules -->
<g id="node18" class="node">
<title>Modules</title>
<polygon fill="#e0e0e0" stroke="black" points="853.28,-958 785.53,-958 785.53,-922 853.28,-922 853.28,-958"/>
<text xml:space="preserve" text-anchor="middle" x="819.4" y="-934.2" font-family="Helvetica,sans-Serif" font-size="14.00">Modules</text>
</g>
<!-- Modules&#45;&gt;ModularDependencyContainer -->
<g id="edge1" class="edge">
<title>Modules&#45;&gt;ModularDependencyContainer</title>
<path fill="none" stroke="black" d="M806.4,-637C1084.02,-502.42 1192.37,-605.07 1493.4,-537.5 1716.58,-487.4 1778.82,-484.69 1985.4,-386.5 2021.14,-369.51 2026.36,-358.76 2059.4,-337"/>
</g>
<!-- Modules&#45;&gt;ImageLoader -->
<g id="edge3" class="edge">
<title>Modules&#45;&gt;ImageLoader</title>
<path fill="none" stroke="black" d="M806.4,-637C873.58,-602.42 1016.68,-393.4 966.4,-337"/>
<path fill="none" stroke="black" d="M966.4,-335C906.99,-279.95 824.31,-234.07 772.86,-208.35"/>
<polygon fill="black" stroke="black" points="774.57,-205.28 764.05,-203.99 771.46,-211.56 774.57,-205.28"/>
<path fill="none" stroke="black" d="M570.4,-788C480.18,-702.87 694.78,-693.11 806.4,-639"/>
</g>
<!-- Modules&#45;&gt;MovieDomain -->
<g id="edge5" class="edge">
<title>Modules&#45;&gt;MovieDomain</title>
<path fill="none" stroke="black" d="M612.4,-335C598.6,-293.25 584.91,-244.13 576.8,-214.03"/>
<polygon fill="black" stroke="black" points="580.24,-213.33 574.27,-204.58 573.48,-215.14 580.24,-213.33"/>
<path fill="none" stroke="black" d="M570.4,-486C554.51,-419.06 634.01,-402.32 612.4,-337"/>
</g>
<!-- Modules&#45;&gt;ShareClient -->
<g id="edge4" class="edge">
<title>Modules&#45;&gt;ShareClient</title>
<path fill="none" stroke="black" d="M570.4,-788C473.43,-696.49 601.21,-617.73 570.4,-488"/>
<path fill="none" stroke="black" d="M570.4,-486C551.29,-375.71 475.55,-262.35 438.73,-212.38"/>
<polygon fill="black" stroke="black" points="441.6,-210.38 432.81,-204.47 435.99,-214.57 441.6,-210.38"/>
</g>
<!-- Modules&#45;&gt;TMDBClient -->
<g id="edge2" class="edge">
<title>Modules&#45;&gt;TMDBClient</title>
<path fill="none" stroke="black" d="M570.4,-788C338.04,-574.68 -103.63,-626.16 22.4,-337"/>
<path fill="none" stroke="black" d="M785.41,-929.15C730.31,-911.27 622.45,-867.92 570.4,-790"/>
<path fill="none" stroke="black" d="M111.4,-184C208.95,-58.62 413.94,-37.27 513.19,-34.6"/>
<polygon fill="black" stroke="black" points="513.03,-38.11 522.96,-34.4 512.89,-31.11 513.03,-38.11"/>
<path fill="none" stroke="black" d="M22.4,-335C51.06,-263.39 64.04,-246.88 111.4,-186"/>
</g>
<!-- Modules&#45;&gt;WatchlistDomain -->
<g id="edge6" class="edge">
<title>Modules&#45;&gt;WatchlistDomain</title>
<path fill="none" stroke="black" d="M22.4,-335C39.6,-295.55 146.53,-239.12 210.41,-208.26"/>
<polygon fill="black" stroke="black" points="211.78,-211.48 219.29,-204 208.76,-205.17 211.78,-211.48"/>
</g>
<!-- Modules&#45;&gt;AppCoordinator -->
<g id="edge7" class="edge">
<title>Modules&#45;&gt;AppCoordinator</title>
<path fill="none" stroke="black" d="M848.45,-921.62C893.34,-894.76 979.6,-843.14 1029.72,-813.15"/>
<polygon fill="black" stroke="black" points="1031.46,-816.19 1038.24,-808.05 1027.86,-810.18 1031.46,-816.19"/>
</g>
</g>
</svg>
