<?xml version="1.0" encoding="UTF-8" standalone="no"?>
<!DOCTYPE svg PUBLIC "-//W3C//DTD SVG 1.1//EN"
 "http://www.w3.org/Graphics/SVG/1.1/DTD/svg11.dtd">
<!-- Generated by graphviz version 14.1.2 (20260124.0452)
 -->
<!-- Title: ModuleDependencies Pages: 1 -->
<svg width="2589pt" height="1111pt"
 viewBox="0.00 0.00 2589.00 1111.00" xmlns="http://www.w3.org/2000/svg" xmlns:xlink="http://www.w3.org/1999/xlink">
<g id="graph0" class="graph" transform="scale(1 1) rotate(0) translate(36 1075)">
<title>ModuleDependencies</title>
<polygon fill="white" stroke="none" points="-36,36 -36,-1075 2553.3,-1075 2553.3,36 -36,36"/>
<g id="clust1" class="cluster">
<title>cluster_utilities</title>
<polygon fill="#e8e8f8" stroke="#e8e8f8" points="1745.28,-159 1745.28,-276 2391.28,-276 2391.28,-159 1745.28,-159"/>
<text xml:space="preserve" text-anchor="middle" x="2068.28" y="-258.7" font-family="Times,serif" font-size="14.00">Utilities</text>
</g>
<g id="clust2" class="cluster">
<title>cluster_ModularDependencyContainer</title>
<path fill="none" stroke="#666666" d="M2211.28,-167C2211.28,-167 2371.28,-167 2371.28,-167 2377.28,-167 2383.28,-173 2383.28,-179 2383.28,-179 2383.28,-231.5 2383.28,-231.5 2383.28,-237.5 2377.28,-243.5 2371.28,-243.5 2371.28,-243.5 2211.28,-243.5 2211.28,-243.5 2205.28,-243.5 2199.28,-237.5 2199.28,-231.5 2199.28,-231.5 2199.28,-179 2199.28,-179 2199.28,-173 2205.28,-167 2211.28,-167"/>
<text xml:space="preserve" text-anchor="middle" x="2291.28" y="-226.2" font-family="Times,serif" font-size="14.00">ModularDependencyContainer</text>
</g>
<g id="clust3" class="cluster">
<title>cluster_ModularNavigation</title>
<path fill="none" stroke="#666666" d="M1989.28,-167C1989.28,-167 2147.28,-167 2147.28,-167 2153.28,-167 2159.28,-173 2159.28,-179 2159.28,-179 2159.28,-231.5 2159.28,-231.5 2159.28,-237.5 2153.28,-243.5 2147.28,-243.5 2147.28,-243.5 1989.28,-243.5 1989.28,-243.5 1983.28,-243.5 1977.28,-237.5 1977.28,-231.5 1977.28,-231.5 1977.28,-179 1977.28,-179 1977.28,-173 1983.28,-167 1989.28,-167"/>
<text xml:space="preserve" text-anchor="middle" x="2068.28" y="-226.2" font-family="Times,serif" font-size="14.00">ModularNavigation</text>
</g>
<g id="clust4" class="cluster">
<title>cluster_SharedUI</title>
<path fill="none" stroke="#666666" d="M1877.28,-167C1877.28,-167 1923.28,-167 1923.28,-167 1929.28,-167 1935.28,-173 1935.28,-179 1935.28,-179 1935.28,-231.5 1935.28,-231.5 1935.28,-237.5 1929.28,-243.5 1923.28,-243.5 1923.28,-243.5 1877.28,-243.5 1877.28,-243.5 1871.28,-243.5 1865.28,-237.5 1865.28,-231.5 1865.28,-231.5 1865.28,-179 1865.28,-179 1865.28,-173 1871.28,-167 1877.28,-167"/>
<text xml:space="preserve" text-anchor="middle" x="1900.28" y="-226.2" font-family="Times,serif" font-size="14.00">SharedUI</text>
</g>
<g id="clust5" class="cluster">
<title>cluster_UIComponents</title>
<path fill="none" stroke="#666666" d="M1765.28,-167C1765.28,-167 1840.28,-167 1840.28,-167 1846.28,-167 1852.28,-173 1852.28,-179 1852.28,-179 1852.28,-231.5 1852.28,-231.5 1852.28,-237.5 1846.28,-243.5 1840.28,-243.5 1840.28,-243.5 1765.28,-243.5 1765.28,-243.5 1759.28,-243.5 1753.28,-237.5 1753.28,-231.5 1753.28,-231.5 1753.28,-179 1753.28,-179 1753.28,-173 1759.28,-167 1765.28,-167"/>
<text xml:space="preserve" text-anchor="middle" x="1802.78" y="-226.2" font-family="Times,serif" font-size="14.00">UIComponents</text>
</g>
<g id="clust6" class="cluster">
<title>cluster_clients</title>
<polygon fill="#e8f4f8" stroke="#e8f4f8" points="265.28,-8 265.28,-276 1289.28,-276 1289.28,-8 265.28,-8"/>
<text xml:space="preserve" text-anchor="middle" x="777.28" y="-258.7" font-family="Times,serif" font-size="14.00">Clients</text>
</g>
<g id="clust7" class="cluster">
<title>cluster_ImageLoader</title>
<path fill="none" stroke="#666666" d="M285.28,-167C285.28,-167 569.28,-167 569.28,-167 575.28,-167 581.28,-173 581.28,-179 581.28,-179 581.28,-231.5 581.28,-231.5 581.28,-237.5 575.28,-243.5 569.28,-243.5 569.28,-243.5 285.28,-243.5 285.28,-243.5 279.28,-243.5 273.28,-237.5 273.28,-231.5 273.28,-231.5 273.28,-179 273.28,-179 273.28,-173 279.28,-167 285.28,-167"/>
<text xml:space="preserve" text-anchor="middle" x="427.28" y="-226.2" font-family="Times,serif" font-size="14.00">ImageLoader</text>
</g>
<g id="clust8" class="cluster">
<title>cluster_MovieDomain</title>
<path fill="none" stroke="#666666" d="M635.28,-167C635.28,-167 919.28,-167 919.28,-167 925.28,-167 931.28,-173 931.28,-179 931.28,-179 931.28,-231.5 931.28,-231.5 931.28,-237.5 925.28,-243.5 919.28,-243.5 919.28,-243.5 635.28,-243.5 635.28,-243.5 629.28,-243.5 623.28,-237.5 623.28,-231.5 623.28,-231.5 623.28,-179 623.28,-179 623.28,-173 629.28,-167 635.28,-167"/>
<text xml:space="preserve" text-anchor="middle" x="777.28" y="-226.2" font-family="Times,serif" font-size="14.00">MovieDomain</text>
</g>
<g id="clust9" class="cluster">
<title>cluster_TMDBClient</title>
<path fill="none" stroke="#666666" d="M400.28,-16C400.28,-16 684.28,-16 684.28,-16 690.28,-16 696.28,-22 696.28,-28 696.28,-28 696.28,-80.5 696.28,-80.5 696.28,-86.5 690.28,-92.5 684.28,-92.5 684.28,-92.5 400.28,-92.5 400.28,-92.5 394.28,-92.5 388.28,-86.5 388.28,-80.5 388.28,-80.5 388.28,-28 388.28,-28 388.28,-22 394.28,-16 400.28,-16"/>
<text xml:space="preserve" text-anchor="middle" x="542.28" y="-75.2" font-family="Times,serif" font-size="14.00">TMDBClient</text>
</g>
<g id="clust10" class="cluster">
<title>cluster_WatchlistDomain</title>
<path fill="none" stroke="#666666" d="M985.28,-167C985.28,-167 1269.28,-167 1269.28,-167 1275.28,-167 1281.28,-173 1281.28,-179 1281.28,-179 1281.28,-231.5 1281.28,-231.5 1281.28,-237.5 1275.28,-243.5 1269.28,-243.5 1269.28,-243.5 985.28,-243.5 985.28,-243.5 979.28,-243.5 973.28,-237.5 973.28,-231.5 973.28,-231.5 973.28,-179 973.28,-179 973.28,-173 979.28,-167 985.28,-167"/>
<text xml:space="preserve" text-anchor="middle" x="1127.28" y="-226.2" font-family="Times,serif" font-size="14.00">WatchlistDomain</text>
</g>
<g id="clust11" class="cluster">
<title>cluster_screens</title>
<polygon fill="#f8f4e8" stroke="#f8f4e8" points="758.28,-310 758.28,-578 1740.28,-578 1740.28,-310 758.28,-310"/>
<text xml:space="preserve" text-anchor="middle" x="1249.28" y="-560.7" font-family="Times,serif" font-size="14.00">Screens</text>
</g>
<g id="clust12" class="cluster">
<title>cluster_BoxOfficeScreen</title>
<path fill="none" stroke="#666666" d="M1114.28,-469C1114.28,-469 1384.28,-469 1384.28,-469 1390.28,-469 1396.28,-475 1396.28,-481 1396.28,-481 1396.28,-533.5 1396.28,-533.5 1396.28,-539.5 1390.28,-545.5 1384.28,-545.5 1384.28,-545.5 1114.28,-545.5 1114.28,-545.5 1108.28,-545.5 1102.28,-539.5 1102.28,-533.5 1102.28,-533.5 1102.28,-481 1102.28,-481 1102.28,-475 1108.28,-469 1114.28,-469"/>
<text xml:space="preserve" text-anchor="middle" x="1249.28" y="-528.2" font-family="Times,serif" font-size="14.00">BoxOfficeScreen</text>
</g>
<g id="clust13" class="cluster">
<title>cluster_DetailScreen</title>
<path fill="none" stroke="#666666" d="M1048.28,-318C1048.28,-318 1318.28,-318 1318.28,-318 1324.28,-318 1330.28,-324 1330.28,-330 1330.28,-330 1330.28,-382.5 1330.28,-382.5 1330.28,-388.5 1324.28,-394.5 1318.28,-394.5 1318.28,-394.5 1048.28,-394.5 1048.28,-394.5 1042.28,-394.5 1036.28,-388.5 1036.28,-382.5 1036.28,-382.5 1036.28,-330 1036.28,-330 1036.28,-324 1042.28,-318 1048.28,-318"/>
<text xml:space="preserve" text-anchor="middle" x="1183.28" y="-377.2" font-family="Times,serif" font-size="14.00">DetailScreen</text>
</g>
<g id="clust14" class="cluster">
<title>cluster_DiscoverScreen</title>
<path fill="none" stroke="#666666" d="M1450.28,-469C1450.28,-469 1720.28,-469 1720.28,-469 1726.28,-469 1732.28,-475 1732.28,-481 1732.28,-481 1732.28,-533.5 1732.28,-533.5 1732.28,-539.5 1726.28,-545.5 1720.28,-545.5 1720.28,-545.5 1450.28,-545.5 1450.28,-545.5 1444.28,-545.5 1438.28,-539.5 1438.28,-533.5 1438.28,-533.5 1438.28,-481 1438.28,-481 1438.28,-475 1444.28,-469 1450.28,-469"/>
<text xml:space="preserve" text-anchor="middle" x="1585.28" y="-528.2" font-family="Times,serif" font-size="14.00">DiscoverScreen</text>
</g>
<g id="clust15" class="cluster">
<title>cluster_WatchlistScreen</title>
<path fill="none" stroke="#666666" d="M778.28,-469C778.28,-469 1048.28,-469 1048.28,-469 1054.28,-469 1060.28,-475 1060.28,-481 1060.28,-481 1060.28,-533.5 1060.28,-533.5 1060.28,-539.5 1054.28,-545.5 1048.28,-545.5 1048.28,-545.5 778.28,-545.5 778.28,-545.5 772.28,-545.5 766.28,-539.5 766.28,-533.5 766.28,-533.5 766.28,-481 766.28,-481 766.28,-475 772.28,-469 778.28,-469"/>
<text xml:space="preserve" text-anchor="middle" x="913.28" y="-528.2" font-family="Times,serif" font-size="14.00">WatchlistScreen</text>
</g>
<g id="clust16" class="cluster">
<title>cluster_coordinators</title>
<polygon fill="#f8e8f4" stroke="#f8e8f4" points="1374.28,-612 1374.28,-880 1572.28,-880 1572.28,-612 1374.28,-612"/>
<text xml:space="preserve" text-anchor="middle" x="1473.28" y="-862.7" font-family="Times,serif" font-size="14.00">Coordinators</text>
</g>
<g id="clust17" class="cluster">
<title>cluster_AppCoordinator</title>
<path fill="none" stroke="#666666" d="M1394.28,-771C1394.28,-771 1552.28,-771 1552.28,-771 1558.28,-771 1564.28,-777 1564.28,-783 1564.28,-783 1564.28,-835.5 1564.28,-835.5 1564.28,-841.5 1558.28,-847.5 1552.28,-847.5 1552.28,-847.5 1394.28,-847.5 1394.28,-847.5 1388.28,-847.5 1382.28,-841.5 1382.28,-835.5 1382.28,-835.5 1382.28,-783 1382.28,-783 1382.28,-777 1388.28,-771 1394.28,-771"/>
<text xml:space="preserve" text-anchor="middle" x="1473.28" y="-830.2" font-family="Times,serif" font-size="14.00">AppCoordinator</text>
</g>
<g id="clust18" class="cluster">
<title>cluster_TabCoordinator</title>
<path fill="none" stroke="#666666" d="M1394.28,-620C1394.28,-620 1552.28,-620 1552.28,-620 1558.28,-620 1564.28,-626 1564.28,-632 1564.28,-632 1564.28,-684.5 1564.28,-684.5 1564.28,-690.5 1558.28,-696.5 1552.28,-696.5 1552.28,-696.5 1394.28,-696.5 1394.28,-696.5 1388.28,-696.5 1382.28,-690.5 1382.28,-684.5 1382.28,-684.5 1382.28,-632 1382.28,-632 1382.28,-626 1388.28,-620 1394.28,-620"/>
<text xml:space="preserve" text-anchor="middle" x="1473.28" y="-679.2" font-family="Times,serif" font-size="14.00">TabCoordinator</text>
</g>
<g id="clust19" class="cluster">
<title>cluster_macros</title>
<polygon fill="#f4f8e8" stroke="#f4f8e8" points="1801.28,-8 1801.28,-125 2335.28,-125 2335.28,-8 1801.28,-8"/>
<text xml:space="preserve" text-anchor="middle" x="2068.28" y="-107.7" font-family="Times,serif" font-size="14.00">Macros</text>
</g>
<g id="clust20" class="cluster">
<title>cluster_CopyableMacro</title>
<path fill="none" stroke="#666666" d="M1821.28,-16C1821.28,-16 2035.28,-16 2035.28,-16 2041.28,-16 2047.28,-22 2047.28,-28 2047.28,-28 2047.28,-80.5 2047.28,-80.5 2047.28,-86.5 2041.28,-92.5 2035.28,-92.5 2035.28,-92.5 1821.28,-92.5 1821.28,-92.5 1815.28,-92.5 1809.28,-86.5 1809.28,-80.5 1809.28,-80.5 1809.28,-28 1809.28,-28 1809.28,-22 1815.28,-16 1821.28,-16"/>
<text xml:space="preserve" text-anchor="middle" x="1928.28" y="-75.2" font-family="Times,serif" font-size="14.00">CopyableMacro</text>
</g>
<g id="clust21" class="cluster">
<title>cluster_DependencyRequirementsMacro</title>
<path fill="none" stroke="#666666" d="M2101.28,-16C2101.28,-16 2315.28,-16 2315.28,-16 2321.28,-16 2327.28,-22 2327.28,-28 2327.28,-28 2327.28,-80.5 2327.28,-80.5 2327.28,-86.5 2321.28,-92.5 2315.28,-92.5 2315.28,-92.5 2101.28,-92.5 2101.28,-92.5 2095.28,-92.5 2089.28,-86.5 2089.28,-80.5 2089.28,-80.5 2089.28,-28 2089.28,-28 2089.28,-22 2095.28,-16 2101.28,-16"/>
<text xml:space="preserve" text-anchor="middle" x="2208.28" y="-75.2" font-family="Times,serif" font-size="14.00">DependencyRequirementsMacro</text>
</g>
<g id="clust22" class="cluster">
<title>cluster_root</title>
<polygon fill="#f0f0f0" stroke="#f0f0f0" points="1374.28,-914 1374.28,-1031 1460.28,-1031 1460.28,-914 1374.28,-914"/>
<text xml:space="preserve" text-anchor="middle" x="1417.28" y="-1013.7" font-family="Times,serif" font-size="14.00">Root</text>
</g>
<g id="clust23" class="cluster">
<title>cluster_Modules</title>
<path fill="none" stroke="#666666" d="M1394.28,-922C1394.28,-922 1440.28,-922 1440.28,-922 1446.28,-922 1452.28,-928 1452.28,-934 1452.28,-934 1452.28,-986.5 1452.28,-986.5 1452.28,-992.5 1446.28,-998.5 1440.28,-998.5 1440.28,-998.5 1394.28,-998.5 1394.28,-998.5 1388.28,-998.5 1382.28,-992.5 1382.28,-986.5 1382.28,-986.5 1382.28,-934 1382.28,-934 1382.28,-928 1388.28,-922 1394.28,-922"/>
<text xml:space="preserve" text-anchor="middle" x="1417.28" y="-981.2" font-family="Times,serif" font-size="14.00">Modules</text>
</g>
<!-- ModularDependencyContainer_main -->
<g id="node1" class="node">
<title>ModularDependencyContainer_main</title>
<polygon fill="#ccccf0" stroke="black" points="2263.28,-211 2209.28,-211 2209.28,-175 2263.28,-175 2263.28,-211"/>
<text xml:space="preserve" text-anchor="middle" x="2236.28" y="-187.2" font-family="Helvetica,sans-Serif" font-size="14.00">main</text>
</g>
<!-- DependencyRequirementsMacro_main -->
<g id="node37" class="node">
<title>DependencyRequirementsMacro_main</title>
<polygon fill="#e7f0cc" stroke="black" points="2151.28,-60 2097.28,-60 2097.28,-24 2151.28,-24 2151.28,-60"/>
<text xml:space="preserve" text-anchor="middle" x="2124.28" y="-36.2" font-family="Helvetica,sans-Serif" font-size="14.00">main</text>
</g>
<!-- ModularDependencyContainer_main&#45;&gt;DependencyRequirementsMacro_main -->
<g id="edge54" class="edge">
<title>ModularDependencyContainer_main&#45;&gt;DependencyRequirementsMacro_main</title>
<path fill="none" stroke="black" d="M2221.07,-174.75C2209.53,-161.43 2193.45,-142.41 2180.28,-125 2166.67,-107.01 2152.35,-85.99 2141.59,-69.74"/>
<polygon fill="black" stroke="black" points="2144.64,-68 2136.23,-61.57 2138.79,-71.85 2144.64,-68"/>
</g>
<!-- ModularDependencyContainer_tests -->
<g id="node2" class="node">
<title>ModularDependencyContainer_tests</title>
<polygon fill="#ccccf0" stroke="black" points="2375.28,-211 2321.28,-211 2321.28,-175 2375.28,-175 2375.28,-211"/>
<text xml:space="preserve" text-anchor="middle" x="2348.28" y="-187.2" font-family="Helvetica,sans-Serif" font-size="14.00">Tests</text>
</g>
<!-- ModularNavigation_main -->
<g id="node3" class="node">
<title>ModularNavigation_main</title>
<polygon fill="#ccccf0" stroke="black" points="2039.28,-211 1985.28,-211 1985.28,-175 2039.28,-175 2039.28,-211"/>
<text xml:space="preserve" text-anchor="middle" x="2012.28" y="-187.2" font-family="Helvetica,sans-Serif" font-size="14.00">main</text>
</g>
<!-- ModularNavigation_tests -->
<g id="node4" class="node">
<title>ModularNavigation_tests</title>
<polygon fill="#ccccf0" stroke="black" points="2151.28,-211 2097.28,-211 2097.28,-175 2151.28,-175 2151.28,-211"/>
<text xml:space="preserve" text-anchor="middle" x="2124.28" y="-187.2" font-family="Helvetica,sans-Serif" font-size="14.00">Tests</text>
</g>
<!-- SharedUI_main -->
<g id="node5" class="node">
<title>SharedUI_main</title>
<polygon fill="#ccccf0" stroke="black" points="1927.28,-211 1873.28,-211 1873.28,-175 1927.28,-175 1927.28,-211"/>
<text xml:space="preserve" text-anchor="middle" x="1900.28" y="-187.2" font-family="Helvetica,sans-Serif" font-size="14.00">main</text>
</g>
<!-- ImageLoader_interface -->
<g id="node8" class="node">
<title>ImageLoader_interface</title>
<polygon fill="#cce7f0" stroke="black" points="461.53,-211 393.03,-211 393.03,-175 461.53,-175 461.53,-211"/>
<text xml:space="preserve" text-anchor="middle" x="427.28" y="-187.2" font-family="Helvetica,sans-Serif" font-size="14.00">Interface</text>
</g>
<!-- SharedUI_main&#45;&gt;ImageLoader_interface -->
<g id="edge55" class="edge">
<title>SharedUI_main&#45;&gt;ImageLoader_interface</title>
<path fill="none" stroke="black" d="M1896.41,-211.32C1891.81,-229.46 1882.61,-257.18 1866.28,-276 1856.49,-287.28 1851.7,-289.09 1837.28,-293 1766.62,-312.19 589.95,-312.19 519.28,-293 483.11,-283.18 456.39,-247.02 441.33,-221"/>
<polygon fill="black" stroke="black" points="444.59,-219.65 436.69,-212.59 438.46,-223.04 444.59,-219.65"/>
</g>
<!-- UIComponents_main -->
<g id="node6" class="node">
<title>UIComponents_main</title>
<polygon fill="#ccccf0" stroke="black" points="1815.28,-211 1761.28,-211 1761.28,-175 1815.28,-175 1815.28,-211"/>
<text xml:space="preserve" text-anchor="middle" x="1788.28" y="-187.2" font-family="Helvetica,sans-Serif" font-size="14.00">main</text>
</g>
<!-- CopyableMacro_main -->
<g id="node35" class="node">
<title>CopyableMacro_main</title>
<polygon fill="#e7f0cc" stroke="black" points="1871.28,-60 1817.28,-60 1817.28,-24 1871.28,-24 1871.28,-60"/>
<text xml:space="preserve" text-anchor="middle" x="1844.28" y="-36.2" font-family="Helvetica,sans-Serif" font-size="14.00">main</text>
</g>
<!-- UIComponents_main&#45;&gt;CopyableMacro_main -->
<g id="edge56" class="edge">
<title>UIComponents_main&#45;&gt;CopyableMacro_main</title>
<path fill="none" stroke="black" d="M1794.82,-174.62C1804.38,-149.16 1822.31,-101.46 1833.75,-71.01"/>
<polygon fill="black" stroke="black" points="1837.02,-72.28 1837.26,-61.69 1830.46,-69.82 1837.02,-72.28"/>
</g>
<!-- ImageLoader_main -->
<g id="node7" class="node">
<title>ImageLoader_main</title>
<polygon fill="#cce7f0" stroke="black" points="335.28,-211 281.28,-211 281.28,-175 335.28,-175 335.28,-211"/>
<text xml:space="preserve" text-anchor="middle" x="308.28" y="-187.2" font-family="Helvetica,sans-Serif" font-size="14.00">main</text>
</g>
<!-- ImageLoader_tests -->
<g id="node9" class="node">
<title>ImageLoader_tests</title>
<polygon fill="#cce7f0" stroke="black" points="573.28,-211 519.28,-211 519.28,-175 573.28,-175 573.28,-211"/>
<text xml:space="preserve" text-anchor="middle" x="546.28" y="-187.2" font-family="Helvetica,sans-Serif" font-size="14.00">Tests</text>
</g>
<!-- MovieDomain_main -->
<g id="node10" class="node">
<title>MovieDomain_main</title>
<polygon fill="#cce7f0" stroke="black" points="685.28,-211 631.28,-211 631.28,-175 685.28,-175 685.28,-211"/>
<text xml:space="preserve" text-anchor="middle" x="658.28" y="-187.2" font-family="Helvetica,sans-Serif" font-size="14.00">main</text>
</g>
<!-- TMDBClient_interface -->
<g id="node14" class="node">
<title>TMDBClient_interface</title>
<polygon fill="#cce7f0" stroke="black" points="576.53,-60 508.03,-60 508.03,-24 576.53,-24 576.53,-60"/>
<text xml:space="preserve" text-anchor="middle" x="542.28" y="-36.2" font-family="Helvetica,sans-Serif" font-size="14.00">Interface</text>
</g>
<!-- MovieDomain_main&#45;&gt;TMDBClient_interface -->
<g id="edge53" class="edge">
<title>MovieDomain_main&#45;&gt;TMDBClient_interface</title>
<path fill="none" stroke="black" d="M644.49,-174.7C633.75,-161.2 618.51,-141.96 605.28,-125 590.8,-106.42 574.61,-85.34 562.27,-69.2"/>
<polygon fill="black" stroke="black" points="565.26,-67.36 556.41,-61.53 559.7,-71.61 565.26,-67.36"/>
</g>
<!-- MovieDomain_interface -->
<g id="node11" class="node">
<title>MovieDomain_interface</title>
<polygon fill="#cce7f0" stroke="black" points="811.53,-211 743.03,-211 743.03,-175 811.53,-175 811.53,-211"/>
<text xml:space="preserve" text-anchor="middle" x="777.28" y="-187.2" font-family="Helvetica,sans-Serif" font-size="14.00">Interface</text>
</g>
<!-- MovieDomain_tests -->
<g id="node12" class="node">
<title>MovieDomain_tests</title>
<polygon fill="#cce7f0" stroke="black" points="923.28,-211 869.28,-211 869.28,-175 923.28,-175 923.28,-211"/>
<text xml:space="preserve" text-anchor="middle" x="896.28" y="-187.2" font-family="Helvetica,sans-Serif" font-size="14.00">Tests</text>
</g>
<!-- TMDBClient_main -->
<g id="node13" class="node">
<title>TMDBClient_main</title>
<polygon fill="#cce7f0" stroke="black" points="450.28,-60 396.28,-60 396.28,-24 450.28,-24 450.28,-60"/>
<text xml:space="preserve" text-anchor="middle" x="423.28" y="-36.2" font-family="Helvetica,sans-Serif" font-size="14.00">main</text>
</g>
<!-- TMDBClient_tests -->
<g id="node15" class="node">
<title>TMDBClient_tests</title>
<polygon fill="#cce7f0" stroke="black" points="688.28,-60 634.28,-60 634.28,-24 688.28,-24 688.28,-60"/>
<text xml:space="preserve" text-anchor="middle" x="661.28" y="-36.2" font-family="Helvetica,sans-Serif" font-size="14.00">Tests</text>
</g>
<!-- WatchlistDomain_main -->
<g id="node16" class="node">
<title>WatchlistDomain_main</title>
<polygon fill="#cce7f0" stroke="black" points="1035.28,-211 981.28,-211 981.28,-175 1035.28,-175 1035.28,-211"/>
<text xml:space="preserve" text-anchor="middle" x="1008.28" y="-187.2" font-family="Helvetica,sans-Serif" font-size="14.00">main</text>
</g>
<!-- WatchlistDomain_interface -->
<g id="node17" class="node">
<title>WatchlistDomain_interface</title>
<polygon fill="#cce7f0" stroke="black" points="1161.53,-211 1093.03,-211 1093.03,-175 1161.53,-175 1161.53,-211"/>
<text xml:space="preserve" text-anchor="middle" x="1127.28" y="-187.2" font-family="Helvetica,sans-Serif" font-size="14.00">Interface</text>
</g>
<!-- WatchlistDomain_tests -->
<g id="node18" class="node">
<title>WatchlistDomain_tests</title>
<polygon fill="#cce7f0" stroke="black" points="1273.28,-211 1219.28,-211 1219.28,-175 1273.28,-175 1273.28,-211"/>
<text xml:space="preserve" text-anchor="middle" x="1246.28" y="-187.2" font-family="Helvetica,sans-Serif" font-size="14.00">Tests</text>
</g>
<!-- BoxOfficeScreen_main -->
<g id="node19" class="node">
<title>BoxOfficeScreen_main</title>
<polygon fill="#f0e7cc" stroke="black" points="1276.28,-513 1222.28,-513 1222.28,-477 1276.28,-477 1276.28,-513"/>
<text xml:space="preserve" text-anchor="middle" x="1249.28" y="-489.2" font-family="Helvetica,sans-Serif" font-size="14.00">main</text>
</g>
<!-- BoxOfficeScreen_main&#45;&gt;ModularDependencyContainer_main -->
<g id="edge16" class="edge">
<title>BoxOfficeScreen_main&#45;&gt;ModularDependencyContainer_main</title>
<path fill="none" stroke="black" d="M2118.28,-343C2154.57,-301.56 2193.71,-250.81 2216.55,-220.51"/>
<polygon fill="black" stroke="black" points="2219.25,-222.74 2222.46,-212.64 2213.66,-218.53 2219.25,-222.74"/>
</g>
<!-- BoxOfficeScreen_main&#45;&gt;ModularNavigation_main -->
<g id="edge17" class="edge">
<title>BoxOfficeScreen_main&#45;&gt;ModularNavigation_main</title>
<path fill="none" stroke="black" d="M2118.28,-343C2142.76,-315.05 2089.88,-306.24 2068.28,-276 2055.26,-257.76 2041.02,-236.9 2030.16,-220.78"/>
<polygon fill="black" stroke="black" points="2033.2,-219.03 2024.72,-212.68 2027.39,-222.93 2033.2,-219.03"/>
<path fill="none" stroke="black" d="M1276.56,-479.73C1285.49,-475.63 1295.61,-471.57 1305.28,-469 1624.28,-384.08 1733.63,-506.15 2044.28,-394.5 2081.52,-381.12 2092.22,-374.77 2118.28,-345"/>
</g>
<!-- BoxOfficeScreen_main&#45;&gt;ImageLoader_interface -->
<g id="edge19" class="edge">
<title>BoxOfficeScreen_main&#45;&gt;ImageLoader_interface</title>
<path fill="none" stroke="black" d="M1222.01,-479.72C1213.08,-475.62 1202.96,-471.57 1193.28,-469 868.22,-382.79 771.42,-453.21 440.28,-394.5 353.51,-379.12 270.46,-430.29 248.28,-345"/>
</g>
<!-- BoxOfficeScreen_main&#45;&gt;MovieDomain_interface -->
<g id="edge18" class="edge">
<title>BoxOfficeScreen_main&#45;&gt;MovieDomain_interface</title>
<path fill="none" stroke="black" d="M1221.98,-479.82C1213.05,-475.73 1202.93,-471.65 1193.28,-469 1039.06,-426.59 505.49,-503.53 484.28,-345"/>
</g>
<!-- DetailScreen_main -->
<g id="node22" class="node">
<title>DetailScreen_main</title>
<polygon fill="#f0e7cc" stroke="black" points="1210.28,-362 1156.28,-362 1156.28,-326 1210.28,-326 1210.28,-362"/>
<text xml:space="preserve" text-anchor="middle" x="1183.28" y="-338.2" font-family="Helvetica,sans-Serif" font-size="14.00">main</text>
</g>
<!-- BoxOfficeScreen_main&#45;&gt;DetailScreen_main -->
<g id="edge20" class="edge">
<title>BoxOfficeScreen_main&#45;&gt;DetailScreen_main</title>
<path fill="none" stroke="black" d="M1241.58,-476.62C1230.26,-451.05 1208.99,-403.04 1195.51,-372.61"/>
<polygon fill="black" stroke="black" points="1198.8,-371.38 1191.55,-363.66 1192.4,-374.22 1198.8,-371.38"/>
</g>
<!-- BoxOfficeScreen_views -->
<g id="node20" class="node">
<title>BoxOfficeScreen_views</title>
<polygon fill="#f0e7cc" stroke="black" points="1164.28,-513 1110.28,-513 1110.28,-477 1164.28,-477 1164.28,-513"/>
<text xml:space="preserve" text-anchor="middle" x="1137.28" y="-489.2" font-family="Helvetica,sans-Serif" font-size="14.00">Views</text>
</g>
<!-- BoxOfficeScreen_views&#45;&gt;SharedUI_main -->
<g id="edge24" class="edge">
<title>BoxOfficeScreen_views&#45;&gt;SharedUI_main</title>
<path fill="none" stroke="black" d="M1164.71,-480.25C1173.65,-476.18 1183.74,-472.01 1193.28,-469 1490.04,-375.41 1645.96,-495.73 1866.28,-276 1880.96,-261.36 1889.6,-239.46 1894.5,-221.98"/>
<polygon fill="black" stroke="black" points="1897.78,-223.26 1896.83,-212.71 1891,-221.56 1897.78,-223.26"/>
</g>
<!-- BoxOfficeScreen_views&#45;&gt;UIComponents_main -->
<g id="edge21" class="edge">
<title>BoxOfficeScreen_views&#45;&gt;UIComponents_main</title>
<path fill="none" stroke="black" d="M1164.59,-480.88C1173.62,-476.79 1183.78,-472.46 1193.28,-469 1306.65,-427.75 1343.62,-442.51 1454.28,-394.5 1571.24,-343.76 1697.05,-259.03 1755.26,-217.88"/>
<polygon fill="black" stroke="black" points="1756.99,-220.95 1763.11,-212.3 1752.93,-215.24 1756.99,-220.95"/>
</g>
<!-- BoxOfficeScreen_views&#45;&gt;ImageLoader_interface -->
<g id="edge23" class="edge">
<title>BoxOfficeScreen_views&#45;&gt;ImageLoader_interface</title>
<path fill="none" stroke="black" d="M1109.89,-481.32C1099.01,-476.77 1086.26,-472.03 1074.28,-469 799.2,-399.53 719.18,-446.59 440.28,-394.5 353.66,-378.32 270.46,-430.29 248.28,-345"/>
</g>
<!-- BoxOfficeScreen_views&#45;&gt;MovieDomain_interface -->
<g id="edge22" class="edge">
<title>BoxOfficeScreen_views&#45;&gt;MovieDomain_interface</title>
<path fill="none" stroke="black" d="M484.28,-343C470.16,-237.47 626.38,-336.08 714.28,-276 734.82,-261.96 751.58,-239.09 762.64,-221.07"/>
<polygon fill="black" stroke="black" points="765.52,-223.08 767.56,-212.69 759.48,-219.54 765.52,-223.08"/>
<path fill="none" stroke="black" d="M1109.85,-481.49C1098.97,-476.96 1086.22,-472.18 1074.28,-469 944.83,-434.48 502.05,-477.79 484.28,-345"/>
</g>
<!-- BoxOfficeScreen_tests -->
<g id="node21" class="node">
<title>BoxOfficeScreen_tests</title>
<polygon fill="#f0e7cc" stroke="black" points="1388.28,-513 1334.28,-513 1334.28,-477 1388.28,-477 1388.28,-513"/>
<text xml:space="preserve" text-anchor="middle" x="1361.28" y="-489.2" font-family="Helvetica,sans-Serif" font-size="14.00">Tests</text>
</g>
<!-- DetailScreen_main&#45;&gt;ModularDependencyContainer_main -->
<g id="edge34" class="edge">
<title>DetailScreen_main&#45;&gt;ModularDependencyContainer_main</title>
<path fill="none" stroke="black" d="M1206.88,-325.57C1216.45,-319.47 1227.91,-313.33 1239.28,-310 1338.96,-280.86 2080.98,-323.59 2173.28,-276 2196.04,-264.27 2212.99,-240.17 2223.54,-221.11"/>
<polygon fill="black" stroke="black" points="2226.51,-222.98 2228.04,-212.5 2220.31,-219.74 2226.51,-222.98"/>
</g>
<!-- DetailScreen_main&#45;&gt;ModularNavigation_main -->
<g id="edge35" class="edge">
<title>DetailScreen_main&#45;&gt;ModularNavigation_main</title>
<path fill="none" stroke="black" d="M1206.9,-325.64C1216.47,-319.55 1227.93,-313.39 1239.28,-310 1390.64,-264.8 1809.3,-349.19 1949.28,-276 1971.83,-264.21 1988.73,-240.33 1999.31,-221.37"/>
<polygon fill="black" stroke="black" points="2002.27,-223.27 2003.84,-212.79 1996.08,-220.01 2002.27,-223.27"/>
</g>
<!-- DetailScreen_main&#45;&gt;ImageLoader_interface -->
<g id="edge38" class="edge">
<title>DetailScreen_main&#45;&gt;ImageLoader_interface</title>
<path fill="none" stroke="black" d="M1159.66,-325.67C1150.09,-319.59 1138.63,-313.42 1127.28,-310 991.56,-269.07 615.72,-342.03 490.28,-276 467.87,-264.2 451.02,-240.5 440.42,-221.6"/>
<polygon fill="black" stroke="black" points="443.52,-219.97 435.74,-212.76 437.33,-223.24 443.52,-219.97"/>
</g>
<!-- DetailScreen_main&#45;&gt;MovieDomain_interface -->
<g id="edge36" class="edge">
<title>DetailScreen_main&#45;&gt;MovieDomain_interface</title>
<path fill="none" stroke="black" d="M1158.71,-325.53C1149.3,-319.66 1138.19,-313.68 1127.28,-310 1005.57,-268.96 951.96,-339.47 840.28,-276 818.39,-263.56 801.58,-240.14 790.85,-221.5"/>
<polygon fill="black" stroke="black" points="793.96,-219.9 786.11,-212.8 787.82,-223.25 793.96,-219.9"/>
</g>
<!-- DetailScreen_main&#45;&gt;WatchlistDomain_interface -->
<g id="edge37" class="edge">
<title>DetailScreen_main&#45;&gt;WatchlistDomain_interface</title>
<path fill="none" stroke="black" d="M1176.75,-325.62C1167.18,-300.16 1149.25,-252.46 1137.81,-222.01"/>
<polygon fill="black" stroke="black" points="1141.1,-220.82 1134.31,-212.69 1134.55,-223.28 1141.1,-220.82"/>
</g>
<!-- DetailScreen_views -->
<g id="node23" class="node">
<title>DetailScreen_views</title>
<polygon fill="#f0e7cc" stroke="black" points="1098.28,-362 1044.28,-362 1044.28,-326 1098.28,-326 1098.28,-362"/>
<text xml:space="preserve" text-anchor="middle" x="1071.28" y="-338.2" font-family="Helvetica,sans-Serif" font-size="14.00">Views</text>
</g>
<!-- DetailScreen_views&#45;&gt;SharedUI_main -->
<g id="edge43" class="edge">
<title>DetailScreen_views&#45;&gt;SharedUI_main</title>
<path fill="none" stroke="black" d="M1094.9,-325.63C1104.46,-319.54 1115.93,-313.38 1127.28,-310 1206.07,-286.56 1799,-323.21 1866.28,-276 1883.65,-263.82 1892.17,-241.03 1896.34,-222.56"/>
<polygon fill="black" stroke="black" points="1899.73,-223.45 1898.17,-212.97 1892.85,-222.13 1899.73,-223.45"/>
</g>
<!-- DetailScreen_views&#45;&gt;UIComponents_main -->
<g id="edge39" class="edge">
<title>DetailScreen_views&#45;&gt;UIComponents_main</title>
<path fill="none" stroke="black" d="M1096.53,-325.52C1105.83,-319.79 1116.69,-313.9 1127.28,-310 1156.99,-299.05 1612.99,-223.03 1749.78,-200.37"/>
<polygon fill="black" stroke="black" points="1750.12,-203.86 1759.42,-198.77 1748.98,-196.95 1750.12,-203.86"/>
</g>
<!-- DetailScreen_views&#45;&gt;ImageLoader_interface -->
<g id="edge42" class="edge">
<title>DetailScreen_views&#45;&gt;ImageLoader_interface</title>
<path fill="none" stroke="black" d="M1044.04,-341.11C935.73,-333.42 539.04,-303.61 490.28,-276 468.37,-263.59 451.56,-240.17 440.84,-221.52"/>
<polygon fill="black" stroke="black" points="443.95,-219.92 436.1,-212.81 437.8,-223.27 443.95,-219.92"/>
</g>
<!-- DetailScreen_views&#45;&gt;MovieDomain_interface -->
<g id="edge40" class="edge">
<title>DetailScreen_views&#45;&gt;MovieDomain_interface</title>
<path fill="none" stroke="black" d="M1043.89,-328.5C1030.94,-322.11 1015.11,-314.95 1000.28,-310 931.33,-286.98 901.78,-314.77 840.28,-276 819.11,-262.65 802.32,-239.52 791.41,-221.22"/>
<polygon fill="black" stroke="black" points="794.55,-219.67 786.57,-212.7 788.46,-223.13 794.55,-219.67"/>
</g>
<!-- DetailScreen_views&#45;&gt;WatchlistDomain_interface -->
<g id="edge41" class="edge">
<title>DetailScreen_views&#45;&gt;WatchlistDomain_interface</title>
<path fill="none" stroke="black" d="M1077.82,-325.62C1087.38,-300.16 1105.31,-252.46 1116.75,-222.01"/>
<polygon fill="black" stroke="black" points="1120.02,-223.28 1120.26,-212.69 1113.46,-220.82 1120.02,-223.28"/>
</g>
<!-- DetailScreen_tests -->
<g id="node24" class="node">
<title>DetailScreen_tests</title>
<polygon fill="#f0e7cc" stroke="black" points="1322.28,-362 1268.28,-362 1268.28,-326 1322.28,-326 1322.28,-362"/>
<text xml:space="preserve" text-anchor="middle" x="1295.28" y="-338.2" font-family="Helvetica,sans-Serif" font-size="14.00">Tests</text>
</g>
<!-- DiscoverScreen_main -->
<g id="node25" class="node">
<title>DiscoverScreen_main</title>
<polygon fill="#f0e7cc" stroke="black" points="1612.28,-513 1558.28,-513 1558.28,-477 1612.28,-477 1612.28,-513"/>
<text xml:space="preserve" text-anchor="middle" x="1585.28" y="-489.2" font-family="Helvetica,sans-Serif" font-size="14.00">main</text>
</g>
<!-- DiscoverScreen_main&#45;&gt;ModularDependencyContainer_main -->
<g id="edge25" class="edge">
<title>DiscoverScreen_main&#45;&gt;ModularDependencyContainer_main</title>
<path fill="none" stroke="black" d="M2236.28,-343C2250.94,-303.13 2246.8,-253.11 2241.94,-222.36"/>
<polygon fill="black" stroke="black" points="2245.42,-221.95 2240.27,-212.69 2238.52,-223.14 2245.42,-221.95"/>
</g>
<!-- DiscoverScreen_main&#45;&gt;ModularNavigation_main -->
<g id="edge26" class="edge">
<title>DiscoverScreen_main&#45;&gt;ModularNavigation_main</title>
<path fill="none" stroke="black" d="M1612.63,-479.97C1621.56,-475.88 1631.67,-471.78 1641.28,-469 1771.05,-431.55 2189.67,-471.77 2236.28,-345"/>
<path fill="none" stroke="black" d="M2236.28,-343C2248.71,-309.2 2195.68,-323.47 2162.28,-310 2121.08,-293.39 2103.4,-303.22 2068.28,-276 2049.6,-261.52 2034.87,-239.03 2025.21,-221.27"/>
<polygon fill="black" stroke="black" points="2028.53,-220.06 2020.82,-212.79 2022.32,-223.28 2028.53,-220.06"/>
</g>
<!-- DiscoverScreen_main&#45;&gt;ImageLoader_interface -->
<g id="edge28" class="edge">
<title>DiscoverScreen_main&#45;&gt;ImageLoader_interface</title>
<path fill="none" stroke="black" d="M1558.01,-479.73C1549.07,-475.63 1538.95,-471.58 1529.28,-469 1212.02,-384.45 1117.51,-452.21 794.28,-394.5 707.53,-379.01 682.14,-382.27 602.28,-345"/>
</g>
<!-- DiscoverScreen_main&#45;&gt;MovieDomain_interface -->
<g id="edge27" class="edge">
<title>DiscoverScreen_main&#45;&gt;MovieDomain_interface</title>
<path fill="none" stroke="black" d="M1557.93,-479.99C1549,-475.91 1538.89,-471.79 1529.28,-469 1310.58,-405.43 1232.52,-482.08 1022.28,-394.5 988.44,-380.4 988.82,-361.91 956.28,-345"/>
</g>
<!-- DiscoverScreen_main&#45;&gt;DetailScreen_main -->
<g id="edge29" class="edge">
<title>DiscoverScreen_main&#45;&gt;DetailScreen_main</title>
<path fill="none" stroke="black" d="M1558.03,-480.73C1549.01,-476.63 1538.83,-472.33 1529.28,-469 1403.64,-425.17 1356.84,-456.85 1239.28,-394.5 1227.52,-388.26 1216.19,-379.07 1206.84,-370.3"/>
<polygon fill="black" stroke="black" points="1209.52,-368.03 1199.93,-363.52 1204.62,-373.02 1209.52,-368.03"/>
</g>
<!-- DiscoverScreen_views -->
<g id="node26" class="node">
<title>DiscoverScreen_views</title>
<polygon fill="#f0e7cc" stroke="black" points="1500.28,-513 1446.28,-513 1446.28,-477 1500.28,-477 1500.28,-513"/>
<text xml:space="preserve" text-anchor="middle" x="1473.28" y="-489.2" font-family="Helvetica,sans-Serif" font-size="14.00">Views</text>
</g>
<!-- DiscoverScreen_views&#45;&gt;SharedUI_main -->
<g id="edge33" class="edge">
<title>DiscoverScreen_views&#45;&gt;SharedUI_main</title>
<path fill="none" stroke="black" d="M2000.28,-343C2003.74,-329.18 1951.25,-259.1 1920.96,-220.17"/>
<polygon fill="black" stroke="black" points="1924,-218.36 1915.08,-212.64 1918.48,-222.67 1924,-218.36"/>
</g>
<!-- DiscoverScreen_views&#45;&gt;UIComponents_main -->
<g id="edge30" class="edge">
<title>DiscoverScreen_views&#45;&gt;UIComponents_main</title>
<path fill="none" stroke="black" d="M2000.28,-343C2017.9,-272.56 1908.23,-321.04 1851.28,-276 1832.1,-260.83 1815.49,-238.57 1804.15,-221.08"/>
<polygon fill="black" stroke="black" points="1807.17,-219.32 1798.9,-212.7 1801.24,-223.03 1807.17,-219.32"/>
<path fill="none" stroke="black" d="M1500.7,-480.22C1509.64,-476.15 1519.73,-471.98 1529.28,-469 1735.91,-404.47 1947.77,-555 2000.28,-345"/>
</g>
<!-- DiscoverScreen_views&#45;&gt;ImageLoader_interface -->
<g id="edge32" class="edge">
<title>DiscoverScreen_views&#45;&gt;ImageLoader_interface</title>
<path fill="none" stroke="black" d="M602.28,-343C549.72,-318.47 533.61,-314.57 490.28,-276 472.12,-259.83 455.55,-237.83 443.96,-220.68"/>
<polygon fill="black" stroke="black" points="446.99,-218.92 438.57,-212.49 441.15,-222.77 446.99,-218.92"/>
<path fill="none" stroke="black" d="M1445.88,-481.35C1435.01,-476.8 1422.26,-472.05 1410.28,-469 1058.18,-379.44 931.5,-498.66 602.28,-345"/>
</g>
<!-- DiscoverScreen_views&#45;&gt;MovieDomain_interface -->
<g id="edge31" class="edge">
<title>DiscoverScreen_views&#45;&gt;MovieDomain_interface</title>
<path fill="none" stroke="black" d="M1446.08,-481.91C1435.12,-477.38 1422.26,-472.49 1410.28,-469 1241.71,-419.84 1182.86,-465.56 1022.28,-394.5 988.75,-379.66 988.82,-361.91 956.28,-345"/>
<path fill="none" stroke="black" d="M956.28,-343C903.45,-315.55 885.05,-315.25 840.28,-276 822,-259.97 805.43,-237.96 793.88,-220.77"/>
<polygon fill="black" stroke="black" points="796.91,-219.01 788.51,-212.56 791.05,-222.85 796.91,-219.01"/>
</g>
<!-- DiscoverScreen_tests -->
<g id="node27" class="node">
<title>DiscoverScreen_tests</title>
<polygon fill="#f0e7cc" stroke="black" points="1724.28,-513 1670.28,-513 1670.28,-477 1724.28,-477 1724.28,-513"/>
<text xml:space="preserve" text-anchor="middle" x="1697.28" y="-489.2" font-family="Helvetica,sans-Serif" font-size="14.00">Tests</text>
</g>
<!-- WatchlistScreen_main -->
<g id="node28" class="node">
<title>WatchlistScreen_main</title>
<polygon fill="#f0e7cc" stroke="black" points="940.28,-513 886.28,-513 886.28,-477 940.28,-477 940.28,-513"/>
<text xml:space="preserve" text-anchor="middle" x="913.28" y="-489.2" font-family="Helvetica,sans-Serif" font-size="14.00">main</text>
</g>
<!-- WatchlistScreen_main&#45;&gt;ModularDependencyContainer_main -->
<g id="edge44" class="edge">
<title>WatchlistScreen_main&#45;&gt;ModularDependencyContainer_main</title>
<path fill="none" stroke="black" d="M940.58,-479.8C949.51,-475.7 959.63,-471.63 969.28,-469 1254.95,-391.18 1340.16,-448.44 1631.28,-394.5 1778.03,-367.31 1810.16,-340.37 1956.28,-310 2051.86,-290.14 2089.33,-325.82 2173.28,-276 2194.94,-263.15 2211.77,-239.77 2222.57,-221.25"/>
<polygon fill="black" stroke="black" points="2225.57,-223.06 2227.35,-212.62 2219.45,-219.67 2225.57,-223.06"/>
</g>
<!-- WatchlistScreen_main&#45;&gt;ModularNavigation_main -->
<g id="edge45" class="edge">
<title>WatchlistScreen_main&#45;&gt;ModularNavigation_main</title>
<path fill="none" stroke="black" d="M940.64,-480.03C949.58,-475.95 959.68,-471.82 969.28,-469 1178.5,-407.44 1241.94,-444.22 1454.28,-394.5 1575.06,-366.22 1599.44,-337.98 1720.28,-310 1820.53,-286.79 1860.59,-328.15 1949.28,-276 1970.99,-263.24 1987.82,-239.85 1998.6,-221.3"/>
<polygon fill="black" stroke="black" points="2001.61,-223.1 2003.37,-212.66 1995.48,-219.72 2001.61,-223.1"/>
</g>
<!-- WatchlistScreen_main&#45;&gt;ImageLoader_interface -->
<g id="edge47" class="edge">
<title>WatchlistScreen_main&#45;&gt;ImageLoader_interface</title>
<path fill="none" stroke="black" d="M885.88,-480.17C876.94,-476.09 866.85,-471.94 857.28,-469 677.33,-413.66 624.23,-434.58 440.28,-394.5 354.18,-375.74 270.46,-430.29 248.28,-345"/>
</g>
<!-- WatchlistScreen_main&#45;&gt;WatchlistDomain_interface -->
<g id="edge46" class="edge">
<title>WatchlistScreen_main&#45;&gt;WatchlistDomain_interface</title>
<path fill="none" stroke="black" d="M893.44,-476.93C863.67,-449.14 813.44,-392.47 838.28,-345"/>
</g>
<!-- WatchlistScreen_main&#45;&gt;DetailScreen_main -->
<g id="edge48" class="edge">
<title>WatchlistScreen_main&#45;&gt;DetailScreen_main</title>
<path fill="none" stroke="black" d="M940.68,-481.79C994.56,-457.71 1110.53,-405.47 1127.28,-394.5 1137.98,-387.5 1148.74,-378.56 1157.92,-370.2"/>
<polygon fill="black" stroke="black" points="1160.18,-372.88 1165.09,-363.49 1155.4,-367.77 1160.18,-372.88"/>
</g>
<!-- WatchlistScreen_views -->
<g id="node29" class="node">
<title>WatchlistScreen_views</title>
<polygon fill="#f0e7cc" stroke="black" points="828.28,-513 774.28,-513 774.28,-477 828.28,-477 828.28,-513"/>
<text xml:space="preserve" text-anchor="middle" x="801.28" y="-489.2" font-family="Helvetica,sans-Serif" font-size="14.00">Views</text>
</g>
<!-- WatchlistScreen_views&#45;&gt;SharedUI_main -->
<g id="edge52" class="edge">
<title>WatchlistScreen_views&#45;&gt;SharedUI_main</title>
<path fill="none" stroke="black" d="M1410.28,-343C1430.47,-337 1425.1,-318.69 1444.28,-310 1529.98,-271.17 1790.21,-331.36 1866.28,-276 1883.35,-263.58 1891.89,-240.97 1896.14,-222.63"/>
<polygon fill="black" stroke="black" points="1899.57,-223.32 1898.07,-212.84 1892.7,-221.97 1899.57,-223.32"/>
</g>
<!-- WatchlistScreen_views&#45;&gt;UIComponents_main -->
<g id="edge49" class="edge">
<title>WatchlistScreen_views&#45;&gt;UIComponents_main</title>
<path fill="none" stroke="black" d="M828.64,-480.03C837.58,-475.94 847.68,-471.82 857.28,-469 1067.36,-407.26 1142.41,-479.29 1344.28,-394.5 1378.09,-380.3 1375.14,-355.45 1410.28,-345"/>
<path fill="none" stroke="black" d="M1410.28,-343C1444.8,-332.74 1451,-323.76 1484.28,-310 1578.99,-270.85 1692.12,-228.94 1750.01,-207.84"/>
<polygon fill="black" stroke="black" points="1751.21,-211.12 1759.41,-204.42 1748.82,-204.55 1751.21,-211.12"/>
</g>
<!-- WatchlistScreen_views&#45;&gt;ImageLoader_interface -->
<g id="edge51" class="edge">
<title>WatchlistScreen_views&#45;&gt;ImageLoader_interface</title>
<path fill="none" stroke="black" d="M248.28,-343C233.3,-285.38 319.51,-315.25 364.28,-276 382.57,-259.97 399.13,-237.96 410.69,-220.77"/>
<polygon fill="black" stroke="black" points="413.51,-222.85 416.06,-212.56 407.65,-219.01 413.51,-222.85"/>
<path fill="none" stroke="black" d="M773.92,-492.32C666.2,-484.97 275.87,-451.09 248.28,-345"/>
</g>
<!-- WatchlistScreen_views&#45;&gt;WatchlistDomain_interface -->
<g id="edge50" class="edge">
<title>WatchlistScreen_views&#45;&gt;WatchlistDomain_interface</title>
<path fill="none" stroke="black" d="M838.28,-343C886.85,-250.17 977.93,-335.32 1064.28,-276 1084.79,-261.91 1101.55,-239.05 1112.62,-221.04"/>
<polygon fill="black" stroke="black" points="1115.49,-223.06 1117.55,-212.66 1109.46,-219.51 1115.49,-223.06"/>
<path fill="none" stroke="black" d="M802.91,-476.52C806.18,-447.68 815.3,-388.93 838.28,-345"/>
</g>
<!-- WatchlistScreen_tests -->
<g id="node30" class="node">
<title>WatchlistScreen_tests</title>
<polygon fill="#f0e7cc" stroke="black" points="1052.28,-513 998.28,-513 998.28,-477 1052.28,-477 1052.28,-513"/>
<text xml:space="preserve" text-anchor="middle" x="1025.28" y="-489.2" font-family="Helvetica,sans-Serif" font-size="14.00">Tests</text>
</g>
<!-- AppCoordinator_main -->
<g id="node31" class="node">
<title>AppCoordinator_main</title>
<polygon fill="#f0cce7" stroke="black" points="1444.28,-815 1390.28,-815 1390.28,-779 1444.28,-779 1444.28,-815"/>
<text xml:space="preserve" text-anchor="middle" x="1417.28" y="-791.2" font-family="Helvetica,sans-Serif" font-size="14.00">main</text>
</g>
<!-- AppCoordinator_main&#45;&gt;ModularDependencyContainer_main -->
<g id="edge7" class="edge">
<title>AppCoordinator_main&#45;&gt;ModularDependencyContainer_main</title>
<path fill="none" stroke="black" d="M2472.28,-645C2564.07,-523.25 2500.97,-422.71 2398.28,-310 2364.96,-273.43 2331.94,-305.59 2292.28,-276 2273.31,-261.85 2258.59,-239.29 2249,-221.42"/>
<polygon fill="black" stroke="black" points="2252.18,-219.94 2244.53,-212.62 2245.94,-223.12 2252.18,-219.94"/>
<path fill="none" stroke="black" d="M1444.59,-781.86C1453.53,-777.77 1463.64,-773.69 1473.28,-771 1688.78,-710.97 2315.97,-807.03 2472.28,-647"/>
</g>
<!-- AppCoordinator_main&#45;&gt;MovieDomain_main -->
<g id="edge8" class="edge">
<title>AppCoordinator_main&#45;&gt;MovieDomain_main</title>
<path fill="none" stroke="black" d="M484.28,-645C407.62,-609.53 381.93,-579.01 366.28,-496"/>
</g>
<!-- AppCoordinator_main&#45;&gt;TMDBClient_main -->
<g id="edge10" class="edge">
<title>AppCoordinator_main&#45;&gt;TMDBClient_main</title>
<path fill="none" stroke="black" d="M1390.14,-793.67C1254.83,-781.74 653.06,-725.1 484.28,-647"/>
<path fill="none" stroke="black" d="M484.28,-645C451.6,-629.88 443.53,-625.83 410.28,-612 371.57,-595.9 358.95,-598.34 322.28,-578 317.57,-575.39 14.54,-349.89 12.28,-345"/>
</g>
<!-- TabCoordinator_main -->
<g id="node33" class="node">
<title>TabCoordinator_main</title>
<polygon fill="#f0cce7" stroke="black" points="1444.28,-664 1390.28,-664 1390.28,-628 1444.28,-628 1444.28,-664"/>
<text xml:space="preserve" text-anchor="middle" x="1417.28" y="-640.2" font-family="Helvetica,sans-Serif" font-size="14.00">main</text>
</g>
<!-- AppCoordinator_main&#45;&gt;TabCoordinator_main -->
<g id="edge9" class="edge">
<title>AppCoordinator_main&#45;&gt;TabCoordinator_main</title>
<path fill="none" stroke="black" d="M1417.28,-778.62C1417.28,-753.27 1417.28,-705.88 1417.28,-675.42"/>
<polygon fill="black" stroke="black" points="1420.78,-675.79 1417.28,-665.79 1413.78,-675.79 1420.78,-675.79"/>
</g>
<!-- AppCoordinator_tests -->
<g id="node32" class="node">
<title>AppCoordinator_tests</title>
<polygon fill="#f0cce7" stroke="black" points="1556.28,-815 1502.28,-815 1502.28,-779 1556.28,-779 1556.28,-815"/>
<text xml:space="preserve" text-anchor="middle" x="1529.28" y="-791.2" font-family="Helvetica,sans-Serif" font-size="14.00">Tests</text>
</g>
<!-- TabCoordinator_main&#45;&gt;ModularDependencyContainer_main -->
<g id="edge11" class="edge">
<title>TabCoordinator_main&#45;&gt;ModularDependencyContainer_main</title>
<path fill="none" stroke="black" d="M2354.28,-343C2359.13,-302.72 2317.57,-307.73 2292.28,-276 2278.22,-258.36 2263.91,-237.33 2253.27,-220.99"/>
<polygon fill="black" stroke="black" points="2256.33,-219.27 2247.98,-212.76 2250.44,-223.06 2256.33,-219.27"/>
</g>
<!-- TabCoordinator_main&#45;&gt;ModularNavigation_main -->
<g id="edge15" class="edge">
<title>TabCoordinator_main&#45;&gt;ModularNavigation_main</title>
<path fill="none" stroke="black" d="M2354.28,-343C2337.18,-311.31 2314.8,-320.27 2280.28,-310 2188.82,-282.78 2148.86,-327.12 2068.28,-276 2047.96,-263.11 2033.15,-239.89 2023.88,-221.45"/>
<polygon fill="black" stroke="black" points="2027.15,-220.17 2019.71,-212.62 2020.82,-223.16 2027.15,-220.17"/>
<path fill="none" stroke="black" d="M1441.87,-627.57C1451.28,-621.7 1462.39,-615.71 1473.28,-612 1589.03,-572.59 1627.16,-605.57 1746.28,-578 1990.77,-521.41 2055.45,-505.97 2280.28,-394.5 2315.73,-376.92 2373.08,-379.82 2354.28,-345"/>
</g>
<!-- TabCoordinator_main&#45;&gt;BoxOfficeScreen_main -->
<g id="edge12" class="edge">
<title>TabCoordinator_main&#45;&gt;BoxOfficeScreen_main</title>
<path fill="none" stroke="black" d="M1390.21,-632.96C1366.06,-621.31 1330.69,-601.92 1305.28,-578 1288.45,-562.14 1273.88,-540.39 1263.82,-523.27"/>
<polygon fill="black" stroke="black" points="1266.89,-521.59 1258.91,-514.62 1260.81,-525.04 1266.89,-521.59"/>
</g>
<!-- TabCoordinator_main&#45;&gt;DiscoverScreen_main -->
<g id="edge13" class="edge">
<title>TabCoordinator_main&#45;&gt;DiscoverScreen_main</title>
<path fill="none" stroke="black" d="M1444.69,-628.8C1477.27,-609.51 1527.5,-579.67 1529.28,-578 1546.12,-562.14 1560.69,-540.39 1570.74,-523.27"/>
<polygon fill="black" stroke="black" points="1573.76,-525.04 1575.65,-514.62 1567.67,-521.59 1573.76,-525.04"/>
</g>
<!-- TabCoordinator_main&#45;&gt;WatchlistScreen_main -->
<g id="edge14" class="edge">
<title>TabCoordinator_main&#45;&gt;WatchlistScreen_main</title>
<path fill="none" stroke="black" d="M1389.92,-643.75C1303.88,-639.37 1040.33,-622.54 969.28,-578 948.89,-565.22 934.09,-541.99 924.84,-523.51"/>
<polygon fill="black" stroke="black" points="928.1,-522.23 920.68,-514.67 921.77,-525.2 928.1,-522.23"/>
</g>
<!-- TabCoordinator_tests -->
<g id="node34" class="node">
<title>TabCoordinator_tests</title>
<polygon fill="#f0cce7" stroke="black" points="1556.28,-664 1502.28,-664 1502.28,-628 1556.28,-628 1556.28,-664"/>
<text xml:space="preserve" text-anchor="middle" x="1529.28" y="-640.2" font-family="Helvetica,sans-Serif" font-size="14.00">Tests</text>
</g>
<!-- CopyableMacro_impl -->
<g id="node36" class="node">
<title>CopyableMacro_impl</title>
<polygon fill="#e7f0cc" stroke="black" points="2039.16,-60 1929.41,-60 1929.41,-24 2039.16,-24 2039.16,-60"/>
<text xml:space="preserve" text-anchor="middle" x="1984.28" y="-36.2" font-family="Helvetica,sans-Serif" font-size="14.00">Implementation</text>
</g>
<!-- DependencyRequirementsMacro_impl -->
<g id="node38" class="node">
<title>DependencyRequirementsMacro_impl</title>
<polygon fill="#e7f0cc" stroke="black" points="2319.16,-60 2209.41,-60 2209.41,-24 2319.16,-24 2319.16,-60"/>
<text xml:space="preserve" text-anchor="middle" x="2264.28" y="-36.2" font-family="Helvetica,sans-Serif" font-size="14.00">Implementation</text>
</g>
<!-- Modules_main -->
<g id="node39" class="node">
<title>Modules_main</title>
<polygon fill="#e0e0e0" stroke="black" points="1444.28,-966 1390.28,-966 1390.28,-930 1444.28,-930 1444.28,-966"/>
<text xml:space="preserve" text-anchor="middle" x="1417.28" y="-942.2" font-family="Helvetica,sans-Serif" font-size="14.00">main</text>
</g>
<!-- Modules_main&#45;&gt;ModularDependencyContainer_main -->
<g id="edge1" class="edge">
<title>Modules_main&#45;&gt;ModularDependencyContainer_main</title>
<path fill="none" stroke="black" d="M1444.44,-942.97C1594.37,-920.21 2319.76,-803.14 2472.28,-647"/>
</g>
<!-- Modules_main&#45;&gt;ImageLoader_main -->
<g id="edge3" class="edge">
<title>Modules_main&#45;&gt;ImageLoader_main</title>
<path fill="none" stroke="black" d="M130.28,-494C53.82,-400.8 203.9,-271.15 274.44,-218.09"/>
<polygon fill="black" stroke="black" points="276.27,-221.09 282.21,-212.32 272.1,-215.46 276.27,-221.09"/>
</g>
<!-- Modules_main&#45;&gt;MovieDomain_main -->
<g id="edge4" class="edge">
<title>Modules_main&#45;&gt;MovieDomain_main</title>
<path fill="none" stroke="black" d="M366.28,-645C357.83,-579.32 378.55,-561.08 366.28,-496"/>
<path fill="none" stroke="black" d="M366.28,-494C349.96,-407.38 372.99,-366.93 440.28,-310 494.13,-264.45 535.75,-313.81 595.28,-276 616.41,-262.58 633.21,-239.46 644.13,-221.18"/>
<polygon fill="black" stroke="black" points="647.07,-223.09 648.98,-212.67 640.99,-219.63 647.07,-223.09"/>
</g>
<!-- Modules_main&#45;&gt;TMDBClient_main -->
<g id="edge2" class="edge">
<title>Modules_main&#45;&gt;TMDBClient_main</title>
<path fill="none" stroke="black" d="M1389.97,-945.19C1227.49,-933.72 394.25,-864.37 366.28,-647"/>
<path fill="none" stroke="black" d="M130.28,-494C77.98,-427.66 47.7,-421.69 12.28,-345"/>
<path fill="none" stroke="black" d="M366.28,-645C306.37,-571.81 233.56,-642.41 164.28,-578 135.39,-551.14 154.71,-526.98 130.28,-496"/>
<path fill="none" stroke="black" d="M12.28,-343C-66.42,-172.61 268.58,-78.41 384.82,-51.3"/>
<polygon fill="black" stroke="black" points="385.55,-54.72 394.52,-49.08 383.99,-47.9 385.55,-54.72"/>
</g>
<!-- Modules_main&#45;&gt;WatchlistDomain_main -->
<g id="edge5" class="edge">
<title>Modules_main&#45;&gt;WatchlistDomain_main</title>
<path fill="none" stroke="black" d="M366.28,-645C358.61,-585.1 739.72,-335.88 794.28,-310 856.44,-280.53 887.32,-313.04 945.28,-276 966.37,-262.52 983.18,-239.41 994.11,-221.15"/>
<polygon fill="black" stroke="black" points="997.04,-223.06 998.96,-212.64 990.96,-219.59 997.04,-223.06"/>
</g>
<!-- Modules_main&#45;&gt;AppCoordinator_main -->
<g id="edge6" class="edge">
<title>Modules_main&#45;&gt;AppCoordinator_main</title>
<path fill="none" stroke="black" d="M1417.28,-929.62C1417.28,-904.27 1417.28,-856.88 1417.28,-826.42"/>
<polygon fill="black" stroke="black" points="1420.78,-826.79 1417.28,-816.79 1413.78,-826.79 1420.78,-826.79"/>
</g>
</g>
</svg>
